<svg xmlns="http://www.w3.org/2000/svg" viewBox="-620 -564 9640 2757" style="background:#1e1e1e">
<rect x="-620" y="-564" width="9640" height="2757" fill="#1e1e1e"/>
<line x1="-135" y1="-266" x2="-60" y2="-276" stroke="#9aa0b5" stroke-width="3" opacity="0.8"/>
<circle cx="-60" cy="-276" r="8" fill="#9aa0b5"/>
<line x1="160" y1="-147" x2="160" y2="-117" stroke="#9aa0b5" stroke-width="3" opacity="0.8"/>
<circle cx="160" cy="-117" r="8" fill="#9aa0b5"/>
<line x1="380" y1="-276" x2="560" y2="114" stroke="#9aa0b5" stroke-width="3" opacity="0.8"/>
<circle cx="560" cy="114" r="8" fill="#9aa0b5"/>
<line x1="-135" y1="256" x2="-60" y2="246" stroke="#9aa0b5" stroke-width="3" opacity="0.8"/>
<circle cx="-60" cy="246" r="8" fill="#9aa0b5"/>
<line x1="160" y1="375" x2="160" y2="405" stroke="#9aa0b5" stroke-width="3" opacity="0.8"/>
<circle cx="160" cy="405" r="8" fill="#9aa0b5"/>
<line x1="380" y1="246" x2="560" y2="114" stroke="#9aa0b5" stroke-width="3" opacity="0.8"/>
<circle cx="560" cy="114" r="8" fill="#9aa0b5"/>
<line x1="-135" y1="778" x2="-60" y2="768" stroke="#9aa0b5" stroke-width="3" opacity="0.8"/>
<circle cx="-60" cy="768" r="8" fill="#9aa0b5"/>
<line x1="160" y1="897" x2="160" y2="927" stroke="#9aa0b5" stroke-width="3" opacity="0.8"/>
<circle cx="160" cy="927" r="8" fill="#9aa0b5"/>
<line x1="380" y1="768" x2="560" y2="713" stroke="#9aa0b5" stroke-width="3" opacity="0.8"/>
<circle cx="560" cy="713" r="8" fill="#9aa0b5"/>
<line x1="-135" y1="1300" x2="-60" y2="1290" stroke="#9aa0b5" stroke-width="3" opacity="0.8"/>
<circle cx="-60" cy="1290" r="8" fill="#9aa0b5"/>
<line x1="160" y1="1419" x2="160" y2="1449" stroke="#9aa0b5" stroke-width="3" opacity="0.8"/>
<circle cx="160" cy="1449" r="8" fill="#9aa0b5"/>
<line x1="380" y1="1290" x2="560" y2="713" stroke="#9aa0b5" stroke-width="3" opacity="0.8"/>
<circle cx="560" cy="713" r="8" fill="#9aa0b5"/>
<line x1="1565" y1="23" x2="1640" y2="-38" stroke="#9aa0b5" stroke-width="3" opacity="0.8"/>
<circle cx="1640" cy="-38" r="8" fill="#9aa0b5"/>
<line x1="2080" y1="-38" x2="2260" y2="155" stroke="#9aa0b5" stroke-width="3" opacity="0.8"/>
<circle cx="2260" cy="155" r="8" fill="#9aa0b5"/>
<line x1="2080" y1="-38" x2="2260" y2="-213" stroke="#9aa0b5" stroke-width="3" opacity="0.8"/>
<circle cx="2260" cy="-213" r="8" fill="#9aa0b5"/>
<line x1="3145" y1="-301" x2="3220" y2="-378" stroke="#9aa0b5" stroke-width="3" opacity="0.8"/>
<circle cx="3220" cy="-378" r="8" fill="#9aa0b5"/>
<line x1="3440" y1="-321" x2="3440" y2="-291" stroke="#9aa0b5" stroke-width="3" opacity="0.8"/>
<circle cx="3440" cy="-291" r="8" fill="#9aa0b5"/>
<line x1="-135" y1="1834" x2="-60" y2="1824" stroke="#9aa0b5" stroke-width="3" opacity="0.8"/>
<circle cx="-60" cy="1824" r="8" fill="#9aa0b5"/>
<line x1="160" y1="1965" x2="160" y2="1995" stroke="#9aa0b5" stroke-width="3" opacity="0.8"/>
<circle cx="160" cy="1995" r="8" fill="#9aa0b5"/>
<line x1="380" y1="1824" x2="560" y2="1881" stroke="#9aa0b5" stroke-width="3" opacity="0.8"/>
<circle cx="560" cy="1881" r="8" fill="#9aa0b5"/>
<line x1="1565" y1="544" x2="1640" y2="420" stroke="#9aa0b5" stroke-width="3" opacity="0.8"/>
<circle cx="1640" cy="420" r="8" fill="#9aa0b5"/>
<line x1="3145" y1="78" x2="3220" y2="12" stroke="#9aa0b5" stroke-width="3" opacity="0.8"/>
<circle cx="3220" cy="12" r="8" fill="#9aa0b5"/>
<line x1="3440" y1="105" x2="3440" y2="135" stroke="#9aa0b5" stroke-width="3" opacity="0.8"/>
<circle cx="3440" cy="135" r="8" fill="#9aa0b5"/>
<line x1="3660" y1="12" x2="3840" y2="183" stroke="#9aa0b5" stroke-width="3" opacity="0.8"/>
<circle cx="3840" cy="183" r="8" fill="#9aa0b5"/>
<line x1="3145" y1="415" x2="3220" y2="510" stroke="#9aa0b5" stroke-width="3" opacity="0.8"/>
<circle cx="3220" cy="510" r="8" fill="#9aa0b5"/>
<line x1="3440" y1="627" x2="3440" y2="657" stroke="#9aa0b5" stroke-width="3" opacity="0.8"/>
<circle cx="3440" cy="657" r="8" fill="#9aa0b5"/>
<line x1="3660" y1="510" x2="3840" y2="183" stroke="#9aa0b5" stroke-width="3" opacity="0.8"/>
<circle cx="3840" cy="183" r="8" fill="#9aa0b5"/>
<line x1="3660" y1="510" x2="3840" y2="437" stroke="#9aa0b5" stroke-width="3" opacity="0.8"/>
<circle cx="3840" cy="437" r="8" fill="#9aa0b5"/>
<line x1="3660" y1="510" x2="3840" y2="527" stroke="#9aa0b5" stroke-width="3" opacity="0.8"/>
<circle cx="3840" cy="527" r="8" fill="#9aa0b5"/>
<line x1="4845" y1="283" x2="4920" y2="184" stroke="#9aa0b5" stroke-width="3" opacity="0.8"/>
<circle cx="4920" cy="184" r="8" fill="#9aa0b5"/>
<line x1="5140" y1="277" x2="5140" y2="307" stroke="#9aa0b5" stroke-width="3" opacity="0.8"/>
<circle cx="5140" cy="307" r="8" fill="#9aa0b5"/>
<line x1="5360" y1="184" x2="5540" y2="27" stroke="#9aa0b5" stroke-width="3" opacity="0.8"/>
<circle cx="5540" cy="27" r="8" fill="#9aa0b5"/>
<line x1="5360" y1="184" x2="5540" y2="190" stroke="#9aa0b5" stroke-width="3" opacity="0.8"/>
<circle cx="5540" cy="190" r="8" fill="#9aa0b5"/>
<line x1="6490" y1="-63" x2="6725" y2="-141" stroke="#9aa0b5" stroke-width="3" opacity="0.8"/>
<circle cx="6725" cy="-141" r="8" fill="#9aa0b5"/>
<line x1="6945" y1="12" x2="6945" y2="42" stroke="#9aa0b5" stroke-width="3" opacity="0.8"/>
<circle cx="6945" cy="42" r="8" fill="#9aa0b5"/>
<line x1="7165" y1="-141" x2="7345" y2="-149" stroke="#9aa0b5" stroke-width="3" opacity="0.8"/>
<circle cx="7345" cy="-149" r="8" fill="#9aa0b5"/>
<line x1="6490" y1="291" x2="6725" y2="324" stroke="#9aa0b5" stroke-width="3" opacity="0.8"/>
<circle cx="6725" cy="324" r="8" fill="#9aa0b5"/>
<line x1="5925" y1="562" x2="6105" y2="644" stroke="#9aa0b5" stroke-width="3" opacity="0.8"/>
<circle cx="6105" cy="644" r="8" fill="#9aa0b5"/>
<line x1="6325" y1="773" x2="6325" y2="803" stroke="#9aa0b5" stroke-width="3" opacity="0.8"/>
<circle cx="6325" cy="803" r="8" fill="#9aa0b5"/>
<line x1="6545" y1="644" x2="6725" y2="710" stroke="#9aa0b5" stroke-width="3" opacity="0.8"/>
<circle cx="6725" cy="710" r="8" fill="#9aa0b5"/>
<line x1="8350" y1="-285" x2="8480" y2="-323" stroke="#9aa0b5" stroke-width="3" opacity="0.8"/>
<circle cx="8480" cy="-323" r="8" fill="#9aa0b5"/>
<line x1="8350" y1="-3" x2="8480" y2="35" stroke="#9aa0b5" stroke-width="3" opacity="0.8"/>
<circle cx="8480" cy="35" r="8" fill="#9aa0b5"/>
<line x1="7730" y1="306" x2="7965" y2="291" stroke="#9aa0b5" stroke-width="3" opacity="0.8"/>
<circle cx="7965" cy="291" r="8" fill="#9aa0b5"/>
<line x1="7730" y1="588" x2="7965" y2="589" stroke="#9aa0b5" stroke-width="3" opacity="0.8"/>
<circle cx="7965" cy="589" r="8" fill="#9aa0b5"/>
<line x1="7730" y1="894" x2="7965" y2="887" stroke="#9aa0b5" stroke-width="3" opacity="0.8"/>
<circle cx="7965" cy="887" r="8" fill="#9aa0b5"/>
<line x1="7730" y1="1176" x2="7965" y2="1197" stroke="#9aa0b5" stroke-width="3" opacity="0.8"/>
<circle cx="7965" cy="1197" r="8" fill="#9aa0b5"/>
<line x1="2580" y1="155" x2="2760" y2="78" stroke="#9aa0b5" stroke-width="3" opacity="0.8"/>
<circle cx="2760" cy="78" r="8" fill="#9aa0b5"/>
<line x1="2580" y1="155" x2="2760" y2="415" stroke="#9aa0b5" stroke-width="3" opacity="0.8"/>
<circle cx="2760" cy="415" r="8" fill="#9aa0b5"/>
<line x1="2580" y1="-213" x2="2760" y2="-301" stroke="#9aa0b5" stroke-width="3" opacity="0.8"/>
<circle cx="2760" cy="-301" r="8" fill="#9aa0b5"/>
<line x1="4160" y1="437" x2="4460" y2="283" stroke="#9aa0b5" stroke-width="3" opacity="0.8"/>
<circle cx="4460" cy="283" r="8" fill="#9aa0b5"/>
<line x1="4160" y1="527" x2="6105" y2="291" stroke="#9aa0b5" stroke-width="3" opacity="0.8"/>
<circle cx="6105" cy="291" r="8" fill="#9aa0b5"/>
<line x1="5860" y1="27" x2="6105" y2="-63" stroke="#9aa0b5" stroke-width="3" opacity="0.8"/>
<circle cx="6105" cy="-63" r="8" fill="#9aa0b5"/>
<line x1="5860" y1="190" x2="6105" y2="291" stroke="#9aa0b5" stroke-width="3" opacity="0.8"/>
<circle cx="6105" cy="291" r="8" fill="#9aa0b5"/>
<line x1="5360" y1="184" x2="5540" y2="562" stroke="#9aa0b5" stroke-width="3" opacity="0.8"/>
<circle cx="5540" cy="562" r="8" fill="#9aa0b5"/>
<text x="5450" y="367" fill="#cfd3e0" font-size="22" text-anchor="middle">AddTopic</text>
<line x1="380" y1="1824" x2="7345" y2="1176" stroke="#9aa0b5" stroke-width="3" opacity="0.8"/>
<circle cx="7345" cy="1176" r="8" fill="#9aa0b5"/>
<text x="3862.5" y="1494" fill="#cfd3e0" font-size="22" text-anchor="middle">AddTopic</text>
<line x1="380" y1="1824" x2="1180" y2="544" stroke="#9aa0b5" stroke-width="3" opacity="0.8"/>
<circle cx="1180" cy="544" r="8" fill="#9aa0b5"/>
<text x="780" y="1178" fill="#cfd3e0" font-size="22" text-anchor="middle">AddTopic</text>
<line x1="1000" y1="114" x2="1180" y2="544" stroke="#9aa0b5" stroke-width="3" opacity="0.8"/>
<circle cx="1180" cy="544" r="8" fill="#9aa0b5"/>
<line x1="1000" y1="114" x2="1180" y2="23" stroke="#9aa0b5" stroke-width="3" opacity="0.8"/>
<circle cx="1180" cy="23" r="8" fill="#9aa0b5"/>
<line x1="7785" y1="-149" x2="7965" y2="-285" stroke="#9aa0b5" stroke-width="3" opacity="0.8"/>
<circle cx="7965" cy="-285" r="8" fill="#9aa0b5"/>
<line x1="7785" y1="-149" x2="7965" y2="-3" stroke="#9aa0b5" stroke-width="3" opacity="0.8"/>
<circle cx="7965" cy="-3" r="8" fill="#9aa0b5"/>
<line x1="7165" y1="710" x2="7345" y2="1176" stroke="#9aa0b5" stroke-width="3" opacity="0.8"/>
<circle cx="7345" cy="1176" r="8" fill="#9aa0b5"/>
<line x1="7165" y1="710" x2="7345" y2="894" stroke="#9aa0b5" stroke-width="3" opacity="0.8"/>
<circle cx="7345" cy="894" r="8" fill="#9aa0b5"/>
<line x1="7165" y1="710" x2="7345" y2="306" stroke="#9aa0b5" stroke-width="3" opacity="0.8"/>
<circle cx="7345" cy="306" r="8" fill="#9aa0b5"/>
<line x1="7165" y1="710" x2="7345" y2="588" stroke="#9aa0b5" stroke-width="3" opacity="0.8"/>
<circle cx="7345" cy="588" r="8" fill="#9aa0b5"/>
<line x1="1000" y1="713" x2="2760" y2="415" stroke="#9aa0b5" stroke-width="3" opacity="0.8"/>
<circle cx="2760" cy="415" r="8" fill="#9aa0b5"/>
<line x1="4280" y1="183" x2="4460" y2="283" stroke="#9aa0b5" stroke-width="3" opacity="0.8"/>
<circle cx="4460" cy="283" r="8" fill="#9aa0b5"/>
<rect x="560" y="9" width="440" height="210" rx="10" fill="#4a4a7a" fill-opacity="0.55" stroke="#4a4a7a" stroke-width="3"/>
<text x="570" y="35" fill="#e8e8e8" font-size="20">OAAB_TVos_Molaguradan 10</text>
<rect x="560" y="608" width="440" height="210" rx="10" fill="#4a4a7a" fill-opacity="0.55" stroke="#4a4a7a" stroke-width="3"/>
<text x="570" y="634" fill="#e8e8e8" font-size="20">OAAB_TVos_Molaguradan 11</text>
<rect x="3840" y="114" width="440" height="138" rx="10" fill="#4a4a7a" fill-opacity="0.55" stroke="#4a4a7a" stroke-width="3"/>
<text x="3850" y="140" fill="#e8e8e8" font-size="20">OAAB_TVos_Molaguradan 20</text>
<rect x="7345" y="-266" width="440" height="234" rx="10" fill="#4a4a7a" fill-opacity="0.55" stroke="#4a4a7a" stroke-width="3"/>
<text x="7355" y="-240" fill="#e8e8e8" font-size="20">OAAB_TVos_Molaguradan 30</text>
<rect x="6725" y="605" width="440" height="210" rx="10" fill="#4a4a7a" fill-opacity="0.55" stroke="#4a4a7a" stroke-width="3"/>
<text x="6735" y="631" fill="#e8e8e8" font-size="20">OAAB_TVos_Molaguradan 100</text>
<rect x="-60" y="-405" width="440" height="258" rx="10" fill="#6b6b35" fill-opacity="0.55" stroke="#6b6b35" stroke-width="3"/>
<text x="-50" y="-379" fill="#e8e8e8" font-size="20">Molaguradan ~11</text>
<rect x="-520" y="-327" width="385" height="122" rx="10" fill="#3d6b40" fill-opacity="0.55" stroke="#3d6b40" stroke-width="3"/>
<text x="-510" y="-301" fill="#e8e8e8" font-size="20">Disposition = 0</text>
<text x="-510" y="-275" fill="#b8b8b8" font-size="17">Class = Wise Woman Service</text>
<rect x="-60" y="-117" width="440" height="74" rx="10" fill="#4a4a7a" fill-opacity="0.55" stroke="#4a4a7a" stroke-width="3"/>
<text x="-50" y="-91" fill="#e8e8e8" font-size="20">Journal [[OAAB_TVos_Molaguradan 10#^obsidi</text>
<rect x="-60" y="117" width="440" height="258" rx="10" fill="#6b6b35" fill-opacity="0.55" stroke="#6b6b35" stroke-width="3"/>
<text x="-50" y="143" fill="#e8e8e8" font-size="20">Molaguradan ~12</text>
<rect x="-520" y="195" width="385" height="122" rx="10" fill="#3d6b40" fill-opacity="0.55" stroke="#3d6b40" stroke-width="3"/>
<text x="-510" y="221" fill="#e8e8e8" font-size="20">Disposition = 0</text>
<text x="-510" y="247" fill="#b8b8b8" font-size="17">Class = Wise Woman</text>
<rect x="-60" y="405" width="440" height="74" rx="10" fill="#4a4a7a" fill-opacity="0.55" stroke="#4a4a7a" stroke-width="3"/>
<text x="-50" y="431" fill="#e8e8e8" font-size="20">Journal [[OAAB_TVos_Molaguradan 10#^obsidi</text>
<rect x="-60" y="639" width="440" height="258" rx="10" fill="#6b6b35" fill-opacity="0.55" stroke="#6b6b35" stroke-width="3"/>
<text x="-50" y="665" fill="#e8e8e8" font-size="20">Molaguradan ~9</text>
<rect x="-520" y="705" width="385" height="146" rx="10" fill="#3d6b40" fill-opacity="0.55" stroke="#3d6b40" stroke-width="3"/>
<text x="-510" y="731" fill="#e8e8e8" font-size="20">Disposition = 0</text>
<text x="-510" y="757" fill="#b8b8b8" font-size="17">Class = Wise Woman Service</text>
<rect x="-60" y="927" width="440" height="74" rx="10" fill="#4a4a7a" fill-opacity="0.55" stroke="#4a4a7a" stroke-width="3"/>
<text x="-50" y="953" fill="#e8e8e8" font-size="20">Journal [[OAAB_TVos_Molaguradan 11#^obsidi</text>
<rect x="-60" y="1161" width="440" height="258" rx="10" fill="#6b6b35" fill-opacity="0.55" stroke="#6b6b35" stroke-width="3"/>
<text x="-50" y="1187" fill="#e8e8e8" font-size="20">Molaguradan ~10</text>
<rect x="-520" y="1227" width="385" height="146" rx="10" fill="#3d6b40" fill-opacity="0.55" stroke="#3d6b40" stroke-width="3"/>
<text x="-510" y="1253" fill="#e8e8e8" font-size="20">Disposition = 0</text>
<text x="-510" y="1279" fill="#b8b8b8" font-size="17">Class = Wise Woman</text>
<rect x="-60" y="1449" width="440" height="74" rx="10" fill="#4a4a7a" fill-opacity="0.55" stroke="#4a4a7a" stroke-width="3"/>
<text x="-50" y="1475" fill="#e8e8e8" font-size="20">Journal [[OAAB_TVos_Molaguradan 11#^obsidi</text>
<rect x="1640" y="-107" width="440" height="138" rx="10" fill="#6b6b35" fill-opacity="0.55" stroke="#6b6b35" stroke-width="3"/>
<text x="1650" y="-81" fill="#e8e8e8" font-size="20">Molaguradan ~8</text>
<rect x="1180" y="-38" width="385" height="122" rx="10" fill="#3d6b40" fill-opacity="0.55" stroke="#3d6b40" stroke-width="3"/>
<text x="1190" y="-12" fill="#e8e8e8" font-size="20">Disposition = 0</text>
<text x="1190" y="14" fill="#b8b8b8" font-size="17">ID = aryon</text>
<rect x="2260" y="94" width="320" height="122" rx="10" fill="#3d6b40" fill-opacity="0.55" stroke="#3d6b40" stroke-width="3"/>
<text x="2270" y="120" fill="#e8e8e8" font-size="20">"I learned that the ashlander tribes in th</text>
<rect x="2260" y="-238" width="320" height="50" rx="10" fill="#3d6b40" fill-opacity="0.55" stroke="#3d6b40" stroke-width="3"/>
<text x="2270" y="-212" fill="#e8e8e8" font-size="20">"Nevermind." - Choice 2</text>
<rect x="3220" y="-435" width="440" height="114" rx="10" fill="#6b6b35" fill-opacity="0.55" stroke="#6b6b35" stroke-width="3"/>
<text x="3230" y="-409" fill="#e8e8e8" font-size="20">Molaguradan ~7</text>
<rect x="2760" y="-374" width="385" height="146" rx="10" fill="#3d6b40" fill-opacity="0.55" stroke="#3d6b40" stroke-width="3"/>
<text x="2770" y="-348" fill="#e8e8e8" font-size="20">Disposition = 0</text>
<text x="2770" y="-322" fill="#b8b8b8" font-size="17">ID = aryon</text>
<rect x="3220" y="-291" width="440" height="50" rx="10" fill="#2f6b66" fill-opacity="0.55" stroke="#2f6b66" stroke-width="3"/>
<text x="3230" y="-265" fill="#e8e8e8" font-size="20">Goodbye</text>
<rect x="-60" y="1683" width="440" height="282" rx="10" fill="#6b6b35" fill-opacity="0.55" stroke="#6b6b35" stroke-width="3"/>
<text x="-50" y="1709" fill="#e8e8e8" font-size="20">rat catcher ~5</text>
<rect x="-520" y="1773" width="385" height="122" rx="10" fill="#3d6b40" fill-opacity="0.55" stroke="#3d6b40" stroke-width="3"/>
<text x="-510" y="1799" fill="#e8e8e8" font-size="20">Disposition = 0</text>
<text x="-510" y="1825" fill="#b8b8b8" font-size="17">ID = goler andrethi</text>
<rect x="-60" y="1995" width="440" height="98" rx="10" fill="#2f6b66" fill-opacity="0.55" stroke="#2f6b66" stroke-width="3"/>
<text x="-50" y="2021" fill="#e8e8e8" font-size="20">Player-&gt;RemoveItem "ABtv_note_VaroSlaveCon</text>
<text x="-50" y="2047" fill="#b8b8b8" font-size="17">AddTopic "[[the incident]]"</text>
<rect x="560" y="1856" width="320" height="50" rx="10" fill="#3d6b40" fill-opacity="0.55" stroke="#3d6b40" stroke-width="3"/>
<text x="570" y="1882" fill="#e8e8e8" font-size="20">"[Wait.]" - Choice 1</text>
<rect x="1640" y="327" width="440" height="186" rx="10" fill="#6b6b35" fill-opacity="0.55" stroke="#6b6b35" stroke-width="3"/>
<text x="1650" y="353" fill="#e8e8e8" font-size="20">the incident ~1</text>
<rect x="1180" y="495" width="385" height="98" rx="10" fill="#3d6b40" fill-opacity="0.55" stroke="#3d6b40" stroke-width="3"/>
<text x="1190" y="521" fill="#e8e8e8" font-size="20">Disposition = 0</text>
<text x="1190" y="547" fill="#b8b8b8" font-size="17">ID = goler andrethi</text>
<rect x="3220" y="-81" width="440" height="186" rx="10" fill="#6b6b35" fill-opacity="0.55" stroke="#6b6b35" stroke-width="3"/>
<text x="3230" y="-55" fill="#e8e8e8" font-size="20">Molaguradan ~5</text>
<rect x="2760" y="-19" width="385" height="194" rx="10" fill="#3d6b40" fill-opacity="0.55" stroke="#3d6b40" stroke-width="3"/>
<text x="2770" y="7" fill="#e8e8e8" font-size="20">Disposition = 0</text>
<text x="2770" y="33" fill="#b8b8b8" font-size="17">ID = aryon</text>
<rect x="3220" y="135" width="440" height="98" rx="10" fill="#4a4a7a" fill-opacity="0.55" stroke="#4a4a7a" stroke-width="3"/>
<text x="3230" y="161" fill="#e8e8e8" font-size="20">Player-&gt;AddItem gold_001 100</text>
<text x="3230" y="187" fill="#b8b8b8" font-size="17">Journal [[OAAB_TVos_Molaguradan 20#^obsidian</text>
<rect x="3220" y="393" width="440" height="234" rx="10" fill="#6b6b35" fill-opacity="0.55" stroke="#6b6b35" stroke-width="3"/>
<text x="3230" y="419" fill="#e8e8e8" font-size="20">Molaguradan ~6</text>
<rect x="2760" y="342" width="385" height="146" rx="10" fill="#3d6b40" fill-opacity="0.55" stroke="#3d6b40" stroke-width="3"/>
<text x="2770" y="368" fill="#e8e8e8" font-size="20">Disposition = 0</text>
<text x="2770" y="394" fill="#b8b8b8" font-size="17">ID = aryon</text>
<rect x="3220" y="657" width="440" height="98" rx="10" fill="#4a4a7a" fill-opacity="0.55" stroke="#4a4a7a" stroke-width="3"/>
<text x="3230" y="683" fill="#e8e8e8" font-size="20">Journal [[OAAB_TVos_Molaguradan 20#^obsidi</text>
<text x="3230" y="709" fill="#b8b8b8" font-size="17">Player-&gt;AddItem gold_001 100</text>
<rect x="3840" y="412" width="320" height="50" rx="10" fill="#3d6b40" fill-opacity="0.55" stroke="#3d6b40" stroke-width="3"/>
<text x="3850" y="438" fill="#e8e8e8" font-size="20">"Go on." - Choice 10</text>
<rect x="3840" y="502" width="320" height="50" rx="10" fill="#3d6b40" fill-opacity="0.55" stroke="#3d6b40" stroke-width="3"/>
<text x="3850" y="528" fill="#e8e8e8" font-size="20">"No, thank you." - Choice 20</text>
<rect x="4920" y="91" width="440" height="186" rx="10" fill="#6b6b35" fill-opacity="0.55" stroke="#6b6b35" stroke-width="3"/>
<text x="4930" y="117" fill="#e8e8e8" font-size="20">Molaguradan ~3</text>
<rect x="4460" y="222" width="385" height="122" rx="10" fill="#3d6b40" fill-opacity="0.55" stroke="#3d6b40" stroke-width="3"/>
<text x="4470" y="248" fill="#e8e8e8" font-size="20">Disposition = 0</text>
<text x="4470" y="274" fill="#b8b8b8" font-size="17">ID = aryon</text>
<rect x="4920" y="307" width="440" height="50" rx="10" fill="#2f6b66" fill-opacity="0.55" stroke="#2f6b66" stroke-width="3"/>
<text x="4930" y="333" fill="#e8e8e8" font-size="20">AddTopic "[[Flame Monarch]]"</text>
<rect x="5540" y="-10" width="320" height="74" rx="10" fill="#3d6b40" fill-opacity="0.55" stroke="#3d6b40" stroke-width="3"/>
<text x="5550" y="16" fill="#e8e8e8" font-size="20">"I will confront this flame monarch." - Ch</text>
<rect x="5540" y="153" width="320" height="74" rx="10" fill="#3d6b40" fill-opacity="0.55" stroke="#3d6b40" stroke-width="3"/>
<text x="5550" y="179" fill="#e8e8e8" font-size="20">"I cannot accept your task right now." - C</text>
<rect x="6725" y="-294" width="440" height="306" rx="10" fill="#6b6b35" fill-opacity="0.55" stroke="#6b6b35" stroke-width="3"/>
<text x="6735" y="-268" fill="#e8e8e8" font-size="20">Molaguradan ~2</text>
<rect x="6105" y="-124" width="385" height="122" rx="10" fill="#3d6b40" fill-opacity="0.55" stroke="#3d6b40" stroke-width="3"/>
<text x="6115" y="-98" fill="#e8e8e8" font-size="20">Disposition = 0</text>
<text x="6115" y="-72" fill="#b8b8b8" font-size="17">ID = aryon</text>
<rect x="6725" y="42" width="440" height="74" rx="10" fill="#4a4a7a" fill-opacity="0.55" stroke="#4a4a7a" stroke-width="3"/>
<text x="6735" y="68" fill="#e8e8e8" font-size="20">Journal [[OAAB_TVos_Molaguradan 30#^obsidi</text>
<rect x="6725" y="276" width="440" height="96" rx="10" fill="#6b6b35" fill-opacity="0.55" stroke="#6b6b35" stroke-width="3"/>
<text x="6735" y="302" fill="#e8e8e8" font-size="20">Molaguradan ~4</text>
<rect x="6105" y="230" width="385" height="122" rx="10" fill="#3d6b40" fill-opacity="0.55" stroke="#3d6b40" stroke-width="3"/>
<text x="6115" y="256" fill="#e8e8e8" font-size="20">Disposition = 0</text>
<text x="6115" y="282" fill="#b8b8b8" font-size="17">ID = aryon</text>
<rect x="6105" y="515" width="440" height="258" rx="10" fill="#6b6b35" fill-opacity="0.55" stroke="#6b6b35" stroke-width="3"/>
<text x="6115" y="541" fill="#e8e8e8" font-size="20">Flame Monarch ~1</text>
<rect x="5540" y="477" width="385" height="170" rx="10" fill="#3d6b40" fill-opacity="0.55" stroke="#3d6b40" stroke-width="3"/>
<text x="5550" y="503" fill="#e8e8e8" font-size="20">Disposition = 0</text>
<text x="5550" y="529" fill="#b8b8b8" font-size="17">ID = aryon</text>
<rect x="6105" y="803" width="440" height="194" rx="10" fill="#4a4a7a" fill-opacity="0.55" stroke="#4a4a7a" stroke-width="3"/>
<text x="6115" y="829" fill="#e8e8e8" font-size="20">"andil"-&gt;ModMercantile -15</text>
<text x="6115" y="855" fill="#b8b8b8" font-size="17">"alenus vendu"-&gt;ModMercantile -15</text>
<rect x="8480" y="-464" width="440" height="282" rx="10" fill="#6b6b35" fill-opacity="0.55" stroke="#6b6b35" stroke-width="3"/>
<text x="8490" y="-438" fill="#e8e8e8" font-size="20">Flame Monarch ~3</text>
<rect x="7965" y="-358" width="385" height="146" rx="10" fill="#3d6b40" fill-opacity="0.55" stroke="#3d6b40" stroke-width="3"/>
<text x="7975" y="-332" fill="#e8e8e8" font-size="20">Disposition = 0</text>
<text x="7975" y="-306" fill="#b8b8b8" font-size="17">ID = aryon</text>
<rect x="8480" y="-22" width="440" height="114" rx="10" fill="#6b6b35" fill-opacity="0.55" stroke="#6b6b35" stroke-width="3"/>
<text x="8490" y="4" fill="#e8e8e8" font-size="20">Molaguradan ~1</text>
<rect x="7965" y="-52" width="385" height="98" rx="10" fill="#3d6b40" fill-opacity="0.55" stroke="#3d6b40" stroke-width="3"/>
<text x="7975" y="-26" fill="#e8e8e8" font-size="20">Disposition = 0</text>
<text x="7975" y="0" fill="#b8b8b8" font-size="17">ID = aryon</text>
<rect x="7965" y="234" width="440" height="114" rx="10" fill="#6b6b35" fill-opacity="0.55" stroke="#6b6b35" stroke-width="3"/>
<text x="7975" y="260" fill="#e8e8e8" font-size="20">Flame Monarch ~0</text>
<rect x="7345" y="257" width="385" height="98" rx="10" fill="#3d6b40" fill-opacity="0.55" stroke="#3d6b40" stroke-width="3"/>
<text x="7355" y="283" fill="#e8e8e8" font-size="20">Disposition = 0</text>
<text x="7355" y="309" fill="#b8b8b8" font-size="17">ID = aryon</text>
<rect x="7965" y="508" width="440" height="162" rx="10" fill="#6b6b35" fill-opacity="0.55" stroke="#6b6b35" stroke-width="3"/>
<text x="7975" y="534" fill="#e8e8e8" font-size="20">Flame Monarch ~2</text>
<rect x="7345" y="515" width="385" height="146" rx="10" fill="#3d6b40" fill-opacity="0.55" stroke="#3d6b40" stroke-width="3"/>
<text x="7355" y="541" fill="#e8e8e8" font-size="20">Disposition = 0</text>
<text x="7355" y="567" fill="#b8b8b8" font-size="17">ID = aryon</text>
<rect x="7965" y="830" width="440" height="114" rx="10" fill="#6b6b35" fill-opacity="0.55" stroke="#6b6b35" stroke-width="3"/>
<text x="7975" y="856" fill="#e8e8e8" font-size="20">Molaguradan ~0</text>
<rect x="7345" y="821" width="385" height="146" rx="10" fill="#3d6b40" fill-opacity="0.55" stroke="#3d6b40" stroke-width="3"/>
<text x="7355" y="847" fill="#e8e8e8" font-size="20">Disposition = 0</text>
<text x="7355" y="873" fill="#b8b8b8" font-size="17">ID = aryon</text>
<rect x="7965" y="1104" width="440" height="186" rx="10" fill="#6b6b35" fill-opacity="0.55" stroke="#6b6b35" stroke-width="3"/>
<text x="7975" y="1130" fill="#e8e8e8" font-size="20">the incident ~0</text>
<rect x="7345" y="1127" width="385" height="98" rx="10" fill="#3d6b40" fill-opacity="0.55" stroke="#3d6b40" stroke-width="3"/>
<text x="7355" y="1153" fill="#e8e8e8" font-size="20">Disposition = 0</text>
<text x="7355" y="1179" fill="#b8b8b8" font-size="17">ID = goler andrethi</text>
</svg>