<svg xmlns="http://www.w3.org/2000/svg" viewBox="-620 -1555 9104 2604" style="background:#1e1e1e">
<rect x="-620" y="-1555" width="9104" height="2604" fill="#1e1e1e"/>
<line x1="-135" y1="-349" x2="-60" y2="-349" stroke="#9aa0b5" stroke-width="3" opacity="0.8"/>
<circle cx="-60" cy="-349" r="8" fill="#9aa0b5"/>
<line x1="160" y1="-220" x2="160" y2="-190" stroke="#9aa0b5" stroke-width="3" opacity="0.8"/>
<circle cx="160" cy="-190" r="8" fill="#9aa0b5"/>
<line x1="380" y1="-349" x2="560" y2="-52" stroke="#9aa0b5" stroke-width="3" opacity="0.8"/>
<circle cx="560" cy="-52" r="8" fill="#9aa0b5"/>
<line x1="-135" y1="153" x2="-60" y2="153" stroke="#9aa0b5" stroke-width="3" opacity="0.8"/>
<circle cx="-60" cy="153" r="8" fill="#9aa0b5"/>
<line x1="160" y1="282" x2="160" y2="312" stroke="#9aa0b5" stroke-width="3" opacity="0.8"/>
<circle cx="160" cy="312" r="8" fill="#9aa0b5"/>
<line x1="380" y1="153" x2="560" y2="-52" stroke="#9aa0b5" stroke-width="3" opacity="0.8"/>
<circle cx="560" cy="-52" r="8" fill="#9aa0b5"/>
<line x1="-135" y1="-1326" x2="-60" y2="-1326" stroke="#9aa0b5" stroke-width="3" opacity="0.8"/>
<circle cx="-60" cy="-1326" r="8" fill="#9aa0b5"/>
<line x1="160" y1="-1197" x2="160" y2="-1167" stroke="#9aa0b5" stroke-width="3" opacity="0.8"/>
<circle cx="160" cy="-1167" r="8" fill="#9aa0b5"/>
<line x1="380" y1="-1326" x2="560" y2="-1062" stroke="#9aa0b5" stroke-width="3" opacity="0.8"/>
<circle cx="560" cy="-1062" r="8" fill="#9aa0b5"/>
<line x1="-135" y1="-827" x2="-60" y2="-827" stroke="#9aa0b5" stroke-width="3" opacity="0.8"/>
<circle cx="-60" cy="-827" r="8" fill="#9aa0b5"/>
<line x1="160" y1="-698" x2="160" y2="-668" stroke="#9aa0b5" stroke-width="3" opacity="0.8"/>
<circle cx="160" cy="-668" r="8" fill="#9aa0b5"/>
<line x1="380" y1="-827" x2="560" y2="-1062" stroke="#9aa0b5" stroke-width="3" opacity="0.8"/>
<circle cx="560" cy="-1062" r="8" fill="#9aa0b5"/>
<line x1="1513" y1="-53" x2="1588" y2="-53" stroke="#9aa0b5" stroke-width="3" opacity="0.8"/>
<circle cx="1588" cy="-53" r="8" fill="#9aa0b5"/>
<line x1="2028" y1="-53" x2="2188" y2="-55" stroke="#9aa0b5" stroke-width="3" opacity="0.8"/>
<circle cx="2188" cy="-55" r="8" fill="#9aa0b5"/>
<line x1="2028" y1="-53" x2="2188" y2="55" stroke="#9aa0b5" stroke-width="3" opacity="0.8"/>
<circle cx="2188" cy="55" r="8" fill="#9aa0b5"/>
<line x1="3073" y1="277" x2="3148" y2="277" stroke="#9aa0b5" stroke-width="3" opacity="0.8"/>
<circle cx="3148" cy="277" r="8" fill="#9aa0b5"/>
<line x1="3368" y1="334" x2="3368" y2="364" stroke="#9aa0b5" stroke-width="3" opacity="0.8"/>
<circle cx="3368" cy="364" r="8" fill="#9aa0b5"/>
<line x1="1000" y1="-52" x2="1128" y2="-53" stroke="#9aa0b5" stroke-width="3" opacity="0.8"/>
<circle cx="1128" cy="-53" r="8" fill="#9aa0b5"/>
<line x1="433" y1="680" x2="508" y2="680" stroke="#9aa0b5" stroke-width="3" opacity="0.8"/>
<circle cx="508" cy="680" r="8" fill="#9aa0b5"/>
<line x1="728" y1="821" x2="728" y2="851" stroke="#9aa0b5" stroke-width="3" opacity="0.8"/>
<circle cx="728" cy="851" r="8" fill="#9aa0b5"/>
<line x1="948" y1="680" x2="1128" y2="766" stroke="#9aa0b5" stroke-width="3" opacity="0.8"/>
<circle cx="1128" cy="766" r="8" fill="#9aa0b5"/>
<line x1="1513" y1="383" x2="1588" y2="383" stroke="#9aa0b5" stroke-width="3" opacity="0.8"/>
<circle cx="1588" cy="383" r="8" fill="#9aa0b5"/>
<line x1="1000" y1="-52" x2="1128" y2="383" stroke="#9aa0b5" stroke-width="3" opacity="0.8"/>
<circle cx="1128" cy="383" r="8" fill="#9aa0b5"/>
<line x1="3073" y1="-195" x2="3148" y2="-195" stroke="#9aa0b5" stroke-width="3" opacity="0.8"/>
<circle cx="3148" cy="-195" r="8" fill="#9aa0b5"/>
<line x1="3368" y1="-102" x2="3368" y2="-72" stroke="#9aa0b5" stroke-width="3" opacity="0.8"/>
<circle cx="3368" cy="-72" r="8" fill="#9aa0b5"/>
<line x1="3588" y1="-195" x2="3760" y2="-758" stroke="#9aa0b5" stroke-width="3" opacity="0.8"/>
<circle cx="3760" cy="-758" r="8" fill="#9aa0b5"/>
<line x1="2998" y1="-1063" x2="3073" y2="-1063" stroke="#9aa0b5" stroke-width="3" opacity="0.8"/>
<circle cx="3073" cy="-1063" r="8" fill="#9aa0b5"/>
<line x1="3293" y1="-946" x2="3293" y2="-916" stroke="#9aa0b5" stroke-width="3" opacity="0.8"/>
<circle cx="3293" cy="-916" r="8" fill="#9aa0b5"/>
<line x1="3513" y1="-1063" x2="3760" y2="-758" stroke="#9aa0b5" stroke-width="3" opacity="0.8"/>
<circle cx="3760" cy="-758" r="8" fill="#9aa0b5"/>
<line x1="3513" y1="-1063" x2="3790" y2="-1002" stroke="#9aa0b5" stroke-width="3" opacity="0.8"/>
<circle cx="3790" cy="-1002" r="8" fill="#9aa0b5"/>
<line x1="3513" y1="-1063" x2="3790" y2="-1132" stroke="#9aa0b5" stroke-width="3" opacity="0.8"/>
<circle cx="3790" cy="-1132" r="8" fill="#9aa0b5"/>
<line x1="1000" y1="-1062" x2="2613" y2="-1063" stroke="#9aa0b5" stroke-width="3" opacity="0.8"/>
<circle cx="2613" cy="-1063" r="8" fill="#9aa0b5"/>
<line x1="4705" y1="-757" x2="4780" y2="-757" stroke="#9aa0b5" stroke-width="3" opacity="0.8"/>
<circle cx="4780" cy="-757" r="8" fill="#9aa0b5"/>
<line x1="5000" y1="-664" x2="5000" y2="-634" stroke="#9aa0b5" stroke-width="3" opacity="0.8"/>
<circle cx="5000" cy="-634" r="8" fill="#9aa0b5"/>
<line x1="5220" y1="-757" x2="5381" y2="-670" stroke="#9aa0b5" stroke-width="3" opacity="0.8"/>
<circle cx="5381" cy="-670" r="8" fill="#9aa0b5"/>
<line x1="5220" y1="-757" x2="5381" y2="-850" stroke="#9aa0b5" stroke-width="3" opacity="0.8"/>
<circle cx="5381" cy="-850" r="8" fill="#9aa0b5"/>
<line x1="6212" y1="-669" x2="6287" y2="-669" stroke="#9aa0b5" stroke-width="3" opacity="0.8"/>
<circle cx="6287" cy="-669" r="8" fill="#9aa0b5"/>
<line x1="6507" y1="-516" x2="6507" y2="-486" stroke="#9aa0b5" stroke-width="3" opacity="0.8"/>
<circle cx="6507" cy="-486" r="8" fill="#9aa0b5"/>
<line x1="6727" y1="-669" x2="6824" y2="-669" stroke="#9aa0b5" stroke-width="3" opacity="0.8"/>
<circle cx="6824" cy="-669" r="8" fill="#9aa0b5"/>
<line x1="6232" y1="-1132" x2="6307" y2="-1132" stroke="#9aa0b5" stroke-width="3" opacity="0.8"/>
<circle cx="6307" cy="-1132" r="8" fill="#9aa0b5"/>
<line x1="4200" y1="-758" x2="4320" y2="-757" stroke="#9aa0b5" stroke-width="3" opacity="0.8"/>
<circle cx="4320" cy="-757" r="8" fill="#9aa0b5"/>
<line x1="5772" y1="22" x2="5847" y2="22" stroke="#9aa0b5" stroke-width="3" opacity="0.8"/>
<circle cx="5847" cy="22" r="8" fill="#9aa0b5"/>
<line x1="6067" y1="151" x2="6067" y2="168" stroke="#9aa0b5" stroke-width="3" opacity="0.8"/>
<circle cx="6067" cy="168" r="8" fill="#9aa0b5"/>
<line x1="6287" y1="22" x2="6334" y2="22" stroke="#9aa0b5" stroke-width="3" opacity="0.8"/>
<circle cx="6334" cy="22" r="8" fill="#9aa0b5"/>
<line x1="7869" y1="-522" x2="7944" y2="-522" stroke="#9aa0b5" stroke-width="3" opacity="0.8"/>
<circle cx="7944" cy="-522" r="8" fill="#9aa0b5"/>
<line x1="7264" y1="-669" x2="7484" y2="-522" stroke="#9aa0b5" stroke-width="3" opacity="0.8"/>
<circle cx="7484" cy="-522" r="8" fill="#9aa0b5"/>
<line x1="7869" y1="-830" x2="7944" y2="-830" stroke="#9aa0b5" stroke-width="3" opacity="0.8"/>
<circle cx="7944" cy="-830" r="8" fill="#9aa0b5"/>
<line x1="7264" y1="-669" x2="7484" y2="-830" stroke="#9aa0b5" stroke-width="3" opacity="0.8"/>
<circle cx="7484" cy="-830" r="8" fill="#9aa0b5"/>
<line x1="7429" y1="413.5" x2="7504" y2="413.5" stroke="#9aa0b5" stroke-width="3" opacity="0.8"/>
<circle cx="7504" cy="413.5" r="8" fill="#9aa0b5"/>
<line x1="7429" y1="127" x2="7504" y2="127" stroke="#9aa0b5" stroke-width="3" opacity="0.8"/>
<circle cx="7504" cy="127" r="8" fill="#9aa0b5"/>
<line x1="6774" y1="22" x2="7044" y2="413.5" stroke="#9aa0b5" stroke-width="3" opacity="0.8"/>
<circle cx="7044" cy="413.5" r="8" fill="#9aa0b5"/>
<line x1="6774" y1="22" x2="7044" y2="127" stroke="#9aa0b5" stroke-width="3" opacity="0.8"/>
<circle cx="7044" cy="127" r="8" fill="#9aa0b5"/>
<line x1="7429" y1="-180" x2="7504" y2="-180" stroke="#9aa0b5" stroke-width="3" opacity="0.8"/>
<circle cx="7504" cy="-180" r="8" fill="#9aa0b5"/>
<line x1="6774" y1="22" x2="7044" y2="-180" stroke="#9aa0b5" stroke-width="3" opacity="0.8"/>
<circle cx="7044" cy="-180" r="8" fill="#9aa0b5"/>
<line x1="7429" y1="698" x2="7504" y2="698" stroke="#9aa0b5" stroke-width="3" opacity="0.8"/>
<circle cx="7504" cy="698" r="8" fill="#9aa0b5"/>
<line x1="6774" y1="22" x2="7044" y2="698" stroke="#9aa0b5" stroke-width="3" opacity="0.8"/>
<circle cx="7044" cy="698" r="8" fill="#9aa0b5"/>
<line x1="2508" y1="-55" x2="2688" y2="-195" stroke="#9aa0b5" stroke-width="3" opacity="0.8"/>
<circle cx="2688" cy="-195" r="8" fill="#9aa0b5"/>
<line x1="2508" y1="-55" x2="2613" y2="-1063" stroke="#9aa0b5" stroke-width="3" opacity="0.8"/>
<circle cx="2613" cy="-1063" r="8" fill="#9aa0b5"/>
<line x1="2508" y1="55" x2="2688" y2="277" stroke="#9aa0b5" stroke-width="3" opacity="0.8"/>
<circle cx="2688" cy="277" r="8" fill="#9aa0b5"/>
<line x1="4110" y1="-1002" x2="4320" y2="-757" stroke="#9aa0b5" stroke-width="3" opacity="0.8"/>
<circle cx="4320" cy="-757" r="8" fill="#9aa0b5"/>
<line x1="4110" y1="-1132" x2="5847" y2="-1132" stroke="#9aa0b5" stroke-width="3" opacity="0.8"/>
<circle cx="5847" cy="-1132" r="8" fill="#9aa0b5"/>
<line x1="5701" y1="-670" x2="5827" y2="-669" stroke="#9aa0b5" stroke-width="3" opacity="0.8"/>
<circle cx="5827" cy="-669" r="8" fill="#9aa0b5"/>
<line x1="5701" y1="-850" x2="5847" y2="-1132" stroke="#9aa0b5" stroke-width="3" opacity="0.8"/>
<circle cx="5847" cy="-1132" r="8" fill="#9aa0b5"/>
<line x1="5220" y1="-757" x2="5387" y2="22" stroke="#9aa0b5" stroke-width="3" opacity="0.8"/>
<circle cx="5387" cy="22" r="8" fill="#9aa0b5"/>
<text x="5303.5" y="-373.5" fill="#cfd3e0" font-size="22" text-anchor="middle">AddTopic</text>
<line x1="948" y1="680" x2="7044" y2="698" stroke="#9aa0b5" stroke-width="3" opacity="0.8"/>
<circle cx="7044" cy="698" r="8" fill="#9aa0b5"/>
<text x="3996" y="683" fill="#cfd3e0" font-size="22" text-anchor="middle">AddTopic</text>
<line x1="948" y1="680" x2="1128" y2="383" stroke="#9aa0b5" stroke-width="3" opacity="0.8"/>
<circle cx="1128" cy="383" r="8" fill="#9aa0b5"/>
<text x="1038" y="525.5" fill="#cfd3e0" font-size="22" text-anchor="middle">AddTopic</text>
<rect x="560" y="-157" width="440" height="210" rx="10" fill="#4a4a7a" fill-opacity="0.55" stroke="#4a4a7a" stroke-width="3"/>
<text x="570" y="-131" fill="#e8e8e8" font-size="20">OAAB_TVos_Molaguradan 10</text>
<rect x="-60" y="-478" width="440" height="258" rx="10" fill="#6b6b35" fill-opacity="0.55" stroke="#6b6b35" stroke-width="3"/>
<text x="-50" y="-452" fill="#e8e8e8" font-size="20">Molaguradan ~11</text>
<rect x="-520" y="-410" width="385" height="122" rx="10" fill="#3d6b40" fill-opacity="0.55" stroke="#3d6b40" stroke-width="3"/>
<text x="-510" y="-384" fill="#e8e8e8" font-size="20">Disposition = 0</text>
<text x="-510" y="-358" fill="#b8b8b8" font-size="17">Class = Wise Woman Service</text>
<rect x="-60" y="-190" width="440" height="74" rx="10" fill="#4a4a7a" fill-opacity="0.55" stroke="#4a4a7a" stroke-width="3"/>
<text x="-50" y="-164" fill="#e8e8e8" font-size="20">Journal [[OAAB_TVos_Molaguradan 10#^obsidi</text>
<rect x="-60" y="24" width="440" height="258" rx="10" fill="#6b6b35" fill-opacity="0.55" stroke="#6b6b35" stroke-width="3"/>
<text x="-50" y="50" fill="#e8e8e8" font-size="20">Molaguradan ~12</text>
<rect x="-520" y="92" width="385" height="122" rx="10" fill="#3d6b40" fill-opacity="0.55" stroke="#3d6b40" stroke-width="3"/>
<text x="-510" y="118" fill="#e8e8e8" font-size="20">Disposition = 0</text>
<text x="-510" y="144" fill="#b8b8b8" font-size="17">Class = Wise Woman</text>
<rect x="-60" y="312" width="440" height="74" rx="10" fill="#4a4a7a" fill-opacity="0.55" stroke="#4a4a7a" stroke-width="3"/>
<text x="-50" y="338" fill="#e8e8e8" font-size="20">Journal [[OAAB_TVos_Molaguradan 10#^obsidi</text>
<rect x="-520" y="-900" width="385" height="146" rx="10" fill="#3d6b40" fill-opacity="0.55" stroke="#3d6b40" stroke-width="3"/>
<text x="-510" y="-874" fill="#e8e8e8" font-size="20">Disposition = 0</text>
<text x="-510" y="-848" fill="#b8b8b8" font-size="17">Class = Wise Woman</text>
<rect x="-60" y="-956" width="440" height="258" rx="10" fill="#6b6b35" fill-opacity="0.55" stroke="#6b6b35" stroke-width="3"/>
<text x="-50" y="-930" fill="#e8e8e8" font-size="20">Molaguradan ~10</text>
<rect x="-60" y="-668" width="440" height="74" rx="10" fill="#4a4a7a" fill-opacity="0.55" stroke="#4a4a7a" stroke-width="3"/>
<text x="-50" y="-642" fill="#e8e8e8" font-size="20">Journal [[OAAB_TVos_Molaguradan 11#^obsidi</text>
<rect x="-60" y="-1455" width="440" height="258" rx="10" fill="#6b6b35" fill-opacity="0.55" stroke="#6b6b35" stroke-width="3"/>
<text x="-50" y="-1429" fill="#e8e8e8" font-size="20">Molaguradan ~9</text>
<rect x="-60" y="-1167" width="440" height="74" rx="10" fill="#4a4a7a" fill-opacity="0.55" stroke="#4a4a7a" stroke-width="3"/>
<text x="-50" y="-1141" fill="#e8e8e8" font-size="20">Journal [[OAAB_TVos_Molaguradan 11#^obsidi</text>
<rect x="-520" y="-1399" width="385" height="146" rx="10" fill="#3d6b40" fill-opacity="0.55" stroke="#3d6b40" stroke-width="3"/>
<text x="-510" y="-1373" fill="#e8e8e8" font-size="20">Disposition = 0</text>
<text x="-510" y="-1347" fill="#b8b8b8" font-size="17">Class = Wise Woman Service</text>
<rect x="560" y="-1167" width="440" height="210" rx="10" fill="#4a4a7a" fill-opacity="0.55" stroke="#4a4a7a" stroke-width="3"/>
<text x="570" y="-1141" fill="#e8e8e8" font-size="20">OAAB_TVos_Molaguradan 11</text>
<rect x="2688" y="-292" width="385" height="194" rx="10" fill="#3d6b40" fill-opacity="0.55" stroke="#3d6b40" stroke-width="3"/>
<text x="2698" y="-266" fill="#e8e8e8" font-size="20">Disposition = 0</text>
<text x="2698" y="-240" fill="#b8b8b8" font-size="17">ID = aryon</text>
<rect x="3148" y="-288" width="440" height="186" rx="10" fill="#6b6b35" fill-opacity="0.55" stroke="#6b6b35" stroke-width="3"/>
<text x="3158" y="-262" fill="#e8e8e8" font-size="20">Molaguradan ~5</text>
<rect x="3148" y="-72" width="440" height="98" rx="10" fill="#4a4a7a" fill-opacity="0.55" stroke="#4a4a7a" stroke-width="3"/>
<text x="3158" y="-46" fill="#e8e8e8" font-size="20">Player-&gt;AddItem gold_001 100</text>
<text x="3158" y="-20" fill="#b8b8b8" font-size="17">Journal [[OAAB_TVos_Molaguradan 20#^obsidian</text>
<rect x="2688" y="204" width="385" height="146" rx="10" fill="#3d6b40" fill-opacity="0.55" stroke="#3d6b40" stroke-width="3"/>
<text x="2698" y="230" fill="#e8e8e8" font-size="20">Disposition = 0</text>
<text x="2698" y="256" fill="#b8b8b8" font-size="17">ID = aryon</text>
<rect x="3148" y="220" width="440" height="114" rx="10" fill="#6b6b35" fill-opacity="0.55" stroke="#6b6b35" stroke-width="3"/>
<text x="3158" y="246" fill="#e8e8e8" font-size="20">Molaguradan ~7</text>
<rect x="3148" y="364" width="440" height="50" rx="10" fill="#2f6b66" fill-opacity="0.55" stroke="#2f6b66" stroke-width="3"/>
<text x="3158" y="390" fill="#e8e8e8" font-size="20">Goodbye</text>
<rect x="1588" y="-122" width="440" height="138" rx="10" fill="#6b6b35" fill-opacity="0.55" stroke="#6b6b35" stroke-width="3"/>
<text x="1598" y="-96" fill="#e8e8e8" font-size="20">Molaguradan ~8</text>
<rect x="2188" y="-116" width="320" height="122" rx="10" fill="#3d6b40" fill-opacity="0.55" stroke="#3d6b40" stroke-width="3"/>
<text x="2198" y="-90" fill="#e8e8e8" font-size="20">"I learned that the ashlander tribes in th</text>
<rect x="2188" y="30" width="320" height="50" rx="10" fill="#3d6b40" fill-opacity="0.55" stroke="#3d6b40" stroke-width="3"/>
<text x="2198" y="56" fill="#e8e8e8" font-size="20">"Nevermind." - Choice 2</text>
<rect x="1128" y="-114" width="385" height="122" rx="10" fill="#3d6b40" fill-opacity="0.55" stroke="#3d6b40" stroke-width="3"/>
<text x="1138" y="-88" fill="#e8e8e8" font-size="20">Disposition = 0</text>
<text x="1138" y="-62" fill="#b8b8b8" font-size="17">ID = aryon</text>
<rect x="2613" y="-1136" width="385" height="146" rx="10" fill="#3d6b40" fill-opacity="0.55" stroke="#3d6b40" stroke-width="3"/>
<text x="2623" y="-1110" fill="#e8e8e8" font-size="20">Disposition = 0</text>
<text x="2623" y="-1084" fill="#b8b8b8" font-size="17">ID = aryon</text>
<rect x="3073" y="-1180" width="440" height="234" rx="10" fill="#6b6b35" fill-opacity="0.55" stroke="#6b6b35" stroke-width="3"/>
<text x="3083" y="-1154" fill="#e8e8e8" font-size="20">Molaguradan ~6</text>
<rect x="3073" y="-916" width="440" height="98" rx="10" fill="#4a4a7a" fill-opacity="0.55" stroke="#4a4a7a" stroke-width="3"/>
<text x="3083" y="-890" fill="#e8e8e8" font-size="20">Journal [[OAAB_TVos_Molaguradan 20#^obsidi</text>
<text x="3083" y="-864" fill="#b8b8b8" font-size="17">Player-&gt;AddItem gold_001 100</text>
<rect x="3760" y="-827" width="440" height="138" rx="10" fill="#4a4a7a" fill-opacity="0.55" stroke="#4a4a7a" stroke-width="3"/>
<text x="3770" y="-801" fill="#e8e8e8" font-size="20">OAAB_TVos_Molaguradan 20</text>
<rect x="3790" y="-1027" width="320" height="50" rx="10" fill="#3d6b40" fill-opacity="0.55" stroke="#3d6b40" stroke-width="3"/>
<text x="3800" y="-1001" fill="#e8e8e8" font-size="20">"Go on." - Choice 10</text>
<rect x="5847" y="-107" width="440" height="258" rx="10" fill="#6b6b35" fill-opacity="0.55" stroke="#6b6b35" stroke-width="3"/>
<text x="5857" y="-81" fill="#e8e8e8" font-size="20">Flame Monarch ~1</text>
<rect x="6334" y="-83" width="440" height="210" rx="10" fill="#4a4a7a" fill-opacity="0.55" stroke="#4a4a7a" stroke-width="3"/>
<text x="6344" y="-57" fill="#e8e8e8" font-size="20">OAAB_TVos_Molaguradan 100</text>
<rect x="5387" y="-63" width="385" height="170" rx="10" fill="#3d6b40" fill-opacity="0.55" stroke="#3d6b40" stroke-width="3"/>
<text x="5397" y="-37" fill="#e8e8e8" font-size="20">Disposition = 0</text>
<text x="5397" y="-11" fill="#b8b8b8" font-size="17">ID = aryon</text>
<rect x="5847" y="168" width="440" height="194" rx="10" fill="#4a4a7a" fill-opacity="0.55" stroke="#4a4a7a" stroke-width="3"/>
<text x="5857" y="194" fill="#e8e8e8" font-size="20">"andil"-&gt;ModMercantile -15</text>
<text x="5857" y="220" fill="#b8b8b8" font-size="17">"alenus vendu"-&gt;ModMercantile -15</text>
<rect x="7484" y="-879" width="385" height="98" rx="10" fill="#3d6b40" fill-opacity="0.55" stroke="#3d6b40" stroke-width="3"/>
<text x="7494" y="-853" fill="#e8e8e8" font-size="20">Disposition = 0</text>
<text x="7494" y="-827" fill="#b8b8b8" font-size="17">ID = aryon</text>
<rect x="7944" y="-887" width="440" height="114" rx="10" fill="#6b6b35" fill-opacity="0.55" stroke="#6b6b35" stroke-width="3"/>
<text x="7954" y="-861" fill="#e8e8e8" font-size="20">Molaguradan ~1</text>
<rect x="4320" y="-818" width="385" height="122" rx="10" fill="#3d6b40" fill-opacity="0.55" stroke="#3d6b40" stroke-width="3"/>
<text x="4330" y="-792" fill="#e8e8e8" font-size="20">Disposition = 0</text>
<text x="4330" y="-766" fill="#b8b8b8" font-size="17">ID = aryon</text>
<rect x="4780" y="-850" width="440" height="186" rx="10" fill="#6b6b35" fill-opacity="0.55" stroke="#6b6b35" stroke-width="3"/>
<text x="4790" y="-824" fill="#e8e8e8" font-size="20">Molaguradan ~3</text>
<rect x="4780" y="-634" width="440" height="50" rx="10" fill="#2f6b66" fill-opacity="0.55" stroke="#2f6b66" stroke-width="3"/>
<text x="4790" y="-608" fill="#e8e8e8" font-size="20">AddTopic "[[Flame Monarch]]"</text>
<rect x="5381" y="-887" width="320" height="74" rx="10" fill="#3d6b40" fill-opacity="0.55" stroke="#3d6b40" stroke-width="3"/>
<text x="5391" y="-861" fill="#e8e8e8" font-size="20">"I cannot accept your task right now." - C</text>
<rect x="5847" y="-1193" width="385" height="122" rx="10" fill="#3d6b40" fill-opacity="0.55" stroke="#3d6b40" stroke-width="3"/>
<text x="5857" y="-1167" fill="#e8e8e8" font-size="20">Disposition = 0</text>
<text x="5857" y="-1141" fill="#b8b8b8" font-size="17">ID = aryon</text>
<rect x="6307" y="-1180" width="440" height="96" rx="10" fill="#6b6b35" fill-opacity="0.55" stroke="#6b6b35" stroke-width="3"/>
<text x="6317" y="-1154" fill="#e8e8e8" font-size="20">Molaguradan ~4</text>
<rect x="3790" y="-1157" width="320" height="50" rx="10" fill="#3d6b40" fill-opacity="0.55" stroke="#3d6b40" stroke-width="3"/>
<text x="3800" y="-1131" fill="#e8e8e8" font-size="20">"No, thank you." - Choice 20</text>
<rect x="1128" y="741" width="320" height="50" rx="10" fill="#3d6b40" fill-opacity="0.55" stroke="#3d6b40" stroke-width="3"/>
<text x="1138" y="767" fill="#e8e8e8" font-size="20">"[Wait.]" - Choice 1</text>
<rect x="1128" y="334" width="385" height="98" rx="10" fill="#3d6b40" fill-opacity="0.55" stroke="#3d6b40" stroke-width="3"/>
<text x="1138" y="360" fill="#e8e8e8" font-size="20">Disposition = 0</text>
<text x="1138" y="386" fill="#b8b8b8" font-size="17">ID = goler andrethi</text>
<rect x="1588" y="290" width="440" height="186" rx="10" fill="#6b6b35" fill-opacity="0.55" stroke="#6b6b35" stroke-width="3"/>
<text x="1598" y="316" fill="#e8e8e8" font-size="20">the incident ~1</text>
<rect x="508" y="539" width="440" height="282" rx="10" fill="#6b6b35" fill-opacity="0.55" stroke="#6b6b35" stroke-width="3"/>
<text x="518" y="565" fill="#e8e8e8" font-size="20">rat catcher ~5</text>
<rect x="48" y="619" width="385" height="122" rx="10" fill="#3d6b40" fill-opacity="0.55" stroke="#3d6b40" stroke-width="3"/>
<text x="58" y="645" fill="#e8e8e8" font-size="20">Disposition = 0</text>
<text x="58" y="671" fill="#b8b8b8" font-size="17">ID = goler andrethi</text>
<rect x="508" y="851" width="440" height="98" rx="10" fill="#2f6b66" fill-opacity="0.55" stroke="#2f6b66" stroke-width="3"/>
<text x="518" y="877" fill="#e8e8e8" font-size="20">Player-&gt;RemoveItem "ABtv_note_VaroSlaveCon</text>
<text x="518" y="903" fill="#b8b8b8" font-size="17">AddTopic "[[the incident]]"</text>
<rect x="7484" y="-595" width="385" height="146" rx="10" fill="#3d6b40" fill-opacity="0.55" stroke="#3d6b40" stroke-width="3"/>
<text x="7494" y="-569" fill="#e8e8e8" font-size="20">Disposition = 0</text>
<text x="7494" y="-543" fill="#b8b8b8" font-size="17">ID = aryon</text>
<rect x="7944" y="-663" width="440" height="282" rx="10" fill="#6b6b35" fill-opacity="0.55" stroke="#6b6b35" stroke-width="3"/>
<text x="7954" y="-637" fill="#e8e8e8" font-size="20">Flame Monarch ~3</text>
<rect x="5827" y="-730" width="385" height="122" rx="10" fill="#3d6b40" fill-opacity="0.55" stroke="#3d6b40" stroke-width="3"/>
<text x="5837" y="-704" fill="#e8e8e8" font-size="20">Disposition = 0</text>
<text x="5837" y="-678" fill="#b8b8b8" font-size="17">ID = aryon</text>
<rect x="5381" y="-707" width="320" height="74" rx="10" fill="#3d6b40" fill-opacity="0.55" stroke="#3d6b40" stroke-width="3"/>
<text x="5391" y="-681" fill="#e8e8e8" font-size="20">"I will confront this flame monarch." - Ch</text>
<rect x="6287" y="-822" width="440" height="306" rx="10" fill="#6b6b35" fill-opacity="0.55" stroke="#6b6b35" stroke-width="3"/>
<text x="6297" y="-796" fill="#e8e8e8" font-size="20">Molaguradan ~2</text>
<rect x="6824" y="-786" width="440" height="234" rx="10" fill="#4a4a7a" fill-opacity="0.55" stroke="#4a4a7a" stroke-width="3"/>
<text x="6834" y="-760" fill="#e8e8e8" font-size="20">OAAB_TVos_Molaguradan 30</text>
<rect x="6287" y="-486" width="440" height="74" rx="10" fill="#4a4a7a" fill-opacity="0.55" stroke="#4a4a7a" stroke-width="3"/>
<text x="6297" y="-460" fill="#e8e8e8" font-size="20">Journal [[OAAB_TVos_Molaguradan 30#^obsidi</text>
<rect x="7504" y="362" width="440" height="103" rx="10" fill="#6b6b35" fill-opacity="0.55" stroke="#6b6b35" stroke-width="3"/>
<text x="7514" y="388" fill="#e8e8e8" font-size="20">Flame Monarch ~0</text>
<rect x="7044" y="369" width="385" height="89" rx="10" fill="#3d6b40" fill-opacity="0.55" stroke="#3d6b40" stroke-width="3"/>
<text x="7054" y="395" fill="#e8e8e8" font-size="20">Disposition = 0</text>
<text x="7054" y="421" fill="#b8b8b8" font-size="17">ID = aryon</text>
<rect x="7504" y="605" width="440" height="186" rx="10" fill="#6b6b35" fill-opacity="0.55" stroke="#6b6b35" stroke-width="3"/>
<text x="7514" y="631" fill="#e8e8e8" font-size="20">the incident ~0</text>
<rect x="7044" y="649" width="385" height="98" rx="10" fill="#3d6b40" fill-opacity="0.55" stroke="#3d6b40" stroke-width="3"/>
<text x="7054" y="675" fill="#e8e8e8" font-size="20">Disposition = 0</text>
<text x="7054" y="701" fill="#b8b8b8" font-size="17">ID = goler andrethi</text>
<rect x="7504" y="-237" width="440" height="114" rx="10" fill="#6b6b35" fill-opacity="0.55" stroke="#6b6b35" stroke-width="3"/>
<text x="7514" y="-211" fill="#e8e8e8" font-size="20">Molaguradan ~0</text>
<rect x="7044" y="-253" width="385" height="146" rx="10" fill="#3d6b40" fill-opacity="0.55" stroke="#3d6b40" stroke-width="3"/>
<text x="7054" y="-227" fill="#e8e8e8" font-size="20">Disposition = 0</text>
<text x="7054" y="-201" fill="#b8b8b8" font-size="17">ID = aryon</text>
<rect x="7504" y="46" width="440" height="162" rx="10" fill="#6b6b35" fill-opacity="0.55" stroke="#6b6b35" stroke-width="3"/>
<text x="7514" y="72" fill="#e8e8e8" font-size="20">Flame Monarch ~2</text>
<rect x="7044" y="54" width="385" height="146" rx="10" fill="#3d6b40" fill-opacity="0.55" stroke="#3d6b40" stroke-width="3"/>
<text x="7054" y="80" fill="#e8e8e8" font-size="20">Disposition = 0</text>
<text x="7054" y="106" fill="#b8b8b8" font-size="17">ID = aryon</text>
</svg>