<svg xmlns="http://www.w3.org/2000/svg" viewBox="-620 -705 16103 2655" style="background:#1e1e1e">
<rect x="-620" y="-705" width="16103" height="2655" fill="#1e1e1e"/>
<line x1="485" y1="-123" x2="720" y2="-123" stroke="#9aa0b5" stroke-width="3" opacity="0.8"/>
<circle cx="720" cy="-123" r="8" fill="#9aa0b5"/>
<line x1="-135" y1="592" x2="100" y2="592" stroke="#9aa0b5" stroke-width="3" opacity="0.8"/>
<circle cx="100" cy="592" r="8" fill="#9aa0b5"/>
<line x1="320" y1="697" x2="320" y2="727" stroke="#9aa0b5" stroke-width="3" opacity="0.8"/>
<circle cx="320" cy="727" r="8" fill="#9aa0b5"/>
<line x1="540" y1="592" x2="720" y2="639" stroke="#9aa0b5" stroke-width="3" opacity="0.8"/>
<circle cx="720" cy="639" r="8" fill="#9aa0b5"/>
<line x1="2805" y1="-243" x2="2985" y2="-488" stroke="#9aa0b5" stroke-width="3" opacity="0.8"/>
<circle cx="2985" cy="-488" r="8" fill="#9aa0b5"/>
<line x1="3205" y1="-371" x2="3205" y2="-341" stroke="#9aa0b5" stroke-width="3" opacity="0.8"/>
<circle cx="3205" cy="-341" r="8" fill="#9aa0b5"/>
<line x1="2805" y1="15" x2="2985" y2="-14" stroke="#9aa0b5" stroke-width="3" opacity="0.8"/>
<circle cx="2985" cy="-14" r="8" fill="#9aa0b5"/>
<line x1="3205" y1="103" x2="3205" y2="133" stroke="#9aa0b5" stroke-width="3" opacity="0.8"/>
<circle cx="3205" cy="133" r="8" fill="#9aa0b5"/>
<line x1="2805" y1="261" x2="2985" y2="424" stroke="#9aa0b5" stroke-width="3" opacity="0.8"/>
<circle cx="2985" cy="424" r="8" fill="#9aa0b5"/>
<line x1="12953" y1="-300" x2="13188" y2="-300" stroke="#9aa0b5" stroke-width="3" opacity="0.8"/>
<circle cx="13188" cy="-300" r="8" fill="#9aa0b5"/>
<line x1="12953" y1="1377" x2="13188" y2="1385" stroke="#9aa0b5" stroke-width="3" opacity="0.8"/>
<circle cx="13188" cy="1385" r="8" fill="#9aa0b5"/>
<line x1="9673" y1="-191" x2="9853" y2="-278" stroke="#9aa0b5" stroke-width="3" opacity="0.8"/>
<circle cx="9853" cy="-278" r="8" fill="#9aa0b5"/>
<line x1="9673" y1="933" x2="9853" y2="1020" stroke="#9aa0b5" stroke-width="3" opacity="0.8"/>
<circle cx="9853" cy="1020" r="8" fill="#9aa0b5"/>
<line x1="1725" y1="172" x2="1800" y2="34" stroke="#9aa0b5" stroke-width="3" opacity="0.8"/>
<circle cx="1800" cy="34" r="8" fill="#9aa0b5"/>
<line x1="2020" y1="127" x2="2020" y2="157" stroke="#9aa0b5" stroke-width="3" opacity="0.8"/>
<circle cx="2020" cy="157" r="8" fill="#9aa0b5"/>
<line x1="1725" y1="454" x2="1800" y2="445" stroke="#9aa0b5" stroke-width="3" opacity="0.8"/>
<circle cx="1800" cy="445" r="8" fill="#9aa0b5"/>
<line x1="6705" y1="113" x2="6780" y2="34" stroke="#9aa0b5" stroke-width="3" opacity="0.8"/>
<circle cx="6780" cy="34" r="8" fill="#9aa0b5"/>
<line x1="7220" y1="34" x2="7400" y2="-37" stroke="#9aa0b5" stroke-width="3" opacity="0.8"/>
<circle cx="7400" cy="-37" r="8" fill="#9aa0b5"/>
<line x1="6705" y1="627" x2="6780" y2="402" stroke="#9aa0b5" stroke-width="3" opacity="0.8"/>
<circle cx="6780" cy="402" r="8" fill="#9aa0b5"/>
<line x1="7220" y1="402" x2="7400" y2="410" stroke="#9aa0b5" stroke-width="3" opacity="0.8"/>
<circle cx="7400" cy="410" r="8" fill="#9aa0b5"/>
<line x1="1725" y1="736" x2="1800" y2="755" stroke="#9aa0b5" stroke-width="3" opacity="0.8"/>
<circle cx="1800" cy="755" r="8" fill="#9aa0b5"/>
<line x1="2240" y1="755" x2="2420" y2="755" stroke="#9aa0b5" stroke-width="3" opacity="0.8"/>
<circle cx="2420" cy="755" r="8" fill="#9aa0b5"/>
<line x1="1725" y1="1018" x2="1800" y2="1109" stroke="#9aa0b5" stroke-width="3" opacity="0.8"/>
<circle cx="1800" cy="1109" r="8" fill="#9aa0b5"/>
<line x1="2240" y1="1109" x2="2420" y2="1169" stroke="#9aa0b5" stroke-width="3" opacity="0.8"/>
<circle cx="2420" cy="1169" r="8" fill="#9aa0b5"/>
<line x1="8593" y1="4" x2="8668" y2="-7" stroke="#9aa0b5" stroke-width="3" opacity="0.8"/>
<circle cx="8668" cy="-7" r="8" fill="#9aa0b5"/>
<line x1="8888" y1="134" x2="8888" y2="164" stroke="#9aa0b5" stroke-width="3" opacity="0.8"/>
<circle cx="8888" cy="164" r="8" fill="#9aa0b5"/>
<line x1="9108" y1="-7" x2="9288" y2="68" stroke="#9aa0b5" stroke-width="3" opacity="0.8"/>
<circle cx="9288" cy="68" r="8" fill="#9aa0b5"/>
<line x1="8593" y1="638" x2="8668" y2="588" stroke="#9aa0b5" stroke-width="3" opacity="0.8"/>
<circle cx="8668" cy="588" r="8" fill="#9aa0b5"/>
<line x1="8888" y1="729" x2="8888" y2="759" stroke="#9aa0b5" stroke-width="3" opacity="0.8"/>
<circle cx="8888" cy="759" r="8" fill="#9aa0b5"/>
<line x1="9108" y1="588" x2="9288" y2="686" stroke="#9aa0b5" stroke-width="3" opacity="0.8"/>
<circle cx="9288" cy="686" r="8" fill="#9aa0b5"/>
<line x1="3370" y1="852" x2="3500" y2="834" stroke="#9aa0b5" stroke-width="3" opacity="0.8"/>
<circle cx="3500" cy="834" r="8" fill="#9aa0b5"/>
<line x1="3940" y1="834" x2="4120" y2="824" stroke="#9aa0b5" stroke-width="3" opacity="0.8"/>
<circle cx="4120" cy="824" r="8" fill="#9aa0b5"/>
<line x1="3370" y1="1296" x2="3500" y2="1303" stroke="#9aa0b5" stroke-width="3" opacity="0.8"/>
<circle cx="3500" cy="1303" r="8" fill="#9aa0b5"/>
<line x1="3940" y1="1303" x2="4120" y2="1307" stroke="#9aa0b5" stroke-width="3" opacity="0.8"/>
<circle cx="4120" cy="1307" r="8" fill="#9aa0b5"/>
<line x1="10238" y1="271" x2="10368" y2="209" stroke="#9aa0b5" stroke-width="3" opacity="0.8"/>
<circle cx="10368" cy="209" r="8" fill="#9aa0b5"/>
<line x1="10808" y1="209" x2="10988" y2="-37" stroke="#9aa0b5" stroke-width="3" opacity="0.8"/>
<circle cx="10988" cy="-37" r="8" fill="#9aa0b5"/>
<line x1="10808" y1="209" x2="10988" y2="130" stroke="#9aa0b5" stroke-width="3" opacity="0.8"/>
<circle cx="10988" cy="130" r="8" fill="#9aa0b5"/>
<line x1="10808" y1="209" x2="10988" y2="228" stroke="#9aa0b5" stroke-width="3" opacity="0.8"/>
<circle cx="10988" cy="228" r="8" fill="#9aa0b5"/>
<line x1="10238" y1="622" x2="10368" y2="845" stroke="#9aa0b5" stroke-width="3" opacity="0.8"/>
<circle cx="10368" cy="845" r="8" fill="#9aa0b5"/>
<line x1="10808" y1="845" x2="10988" y2="1060" stroke="#9aa0b5" stroke-width="3" opacity="0.8"/>
<circle cx="10988" cy="1060" r="8" fill="#9aa0b5"/>
<line x1="10808" y1="845" x2="10988" y2="726" stroke="#9aa0b5" stroke-width="3" opacity="0.8"/>
<circle cx="10988" cy="726" r="8" fill="#9aa0b5"/>
<line x1="10808" y1="845" x2="10988" y2="824" stroke="#9aa0b5" stroke-width="3" opacity="0.8"/>
<circle cx="10988" cy="824" r="8" fill="#9aa0b5"/>
<line x1="5005" y1="822" x2="5080" y2="671" stroke="#9aa0b5" stroke-width="3" opacity="0.8"/>
<circle cx="5080" cy="671" r="8" fill="#9aa0b5"/>
<line x1="5300" y1="728" x2="5300" y2="758" stroke="#9aa0b5" stroke-width="3" opacity="0.8"/>
<circle cx="5300" cy="758" r="8" fill="#9aa0b5"/>
<line x1="5520" y1="671" x2="5700" y2="1013" stroke="#9aa0b5" stroke-width="3" opacity="0.8"/>
<circle cx="5700" cy="1013" r="8" fill="#9aa0b5"/>
<line x1="5005" y1="1308" x2="5080" y2="1234" stroke="#9aa0b5" stroke-width="3" opacity="0.8"/>
<circle cx="5080" cy="1234" r="8" fill="#9aa0b5"/>
<line x1="5300" y1="1291" x2="5300" y2="1321" stroke="#9aa0b5" stroke-width="3" opacity="0.8"/>
<circle cx="5300" cy="1321" r="8" fill="#9aa0b5"/>
<line x1="5520" y1="1234" x2="5700" y2="1013" stroke="#9aa0b5" stroke-width="3" opacity="0.8"/>
<circle cx="5700" cy="1013" r="8" fill="#9aa0b5"/>
<line x1="11873" y1="-213" x2="11948" y2="-297" stroke="#9aa0b5" stroke-width="3" opacity="0.8"/>
<circle cx="11948" cy="-297" r="8" fill="#9aa0b5"/>
<line x1="12168" y1="-144" x2="12168" y2="-114" stroke="#9aa0b5" stroke-width="3" opacity="0.8"/>
<circle cx="12168" cy="-114" r="8" fill="#9aa0b5"/>
<line x1="12388" y1="-297" x2="12568" y2="752" stroke="#9aa0b5" stroke-width="3" opacity="0.8"/>
<circle cx="12568" cy="752" r="8" fill="#9aa0b5"/>
<line x1="11873" y1="1198" x2="11948" y2="1293" stroke="#9aa0b5" stroke-width="3" opacity="0.8"/>
<circle cx="11948" cy="1293" r="8" fill="#9aa0b5"/>
<line x1="12168" y1="1446" x2="12168" y2="1476" stroke="#9aa0b5" stroke-width="3" opacity="0.8"/>
<circle cx="12168" cy="1476" r="8" fill="#9aa0b5"/>
<line x1="12388" y1="1293" x2="12568" y2="752" stroke="#9aa0b5" stroke-width="3" opacity="0.8"/>
<circle cx="12568" cy="752" r="8" fill="#9aa0b5"/>
<line x1="6705" y1="1383" x2="6780" y2="1359" stroke="#9aa0b5" stroke-width="3" opacity="0.8"/>
<circle cx="6780" cy="1359" r="8" fill="#9aa0b5"/>
<line x1="7000" y1="1416" x2="7000" y2="1446" stroke="#9aa0b5" stroke-width="3" opacity="0.8"/>
<circle cx="7000" cy="1446" r="8" fill="#9aa0b5"/>
<line x1="6705" y1="1689" x2="6780" y2="1713" stroke="#9aa0b5" stroke-width="3" opacity="0.8"/>
<circle cx="6780" cy="1713" r="8" fill="#9aa0b5"/>
<line x1="7000" y1="1770" x2="7000" y2="1800" stroke="#9aa0b5" stroke-width="3" opacity="0.8"/>
<circle cx="7000" cy="1800" r="8" fill="#9aa0b5"/>
<line x1="13573" y1="753" x2="13808" y2="825" stroke="#9aa0b5" stroke-width="3" opacity="0.8"/>
<circle cx="13808" cy="825" r="8" fill="#9aa0b5"/>
<line x1="13573" y1="1035" x2="13808" y2="1147" stroke="#9aa0b5" stroke-width="3" opacity="0.8"/>
<circle cx="13808" cy="1147" r="8" fill="#9aa0b5"/>
<line x1="14193" y1="241" x2="14428" y2="288" stroke="#9aa0b5" stroke-width="3" opacity="0.8"/>
<circle cx="14428" cy="288" r="8" fill="#9aa0b5"/>
<line x1="14193" y1="523" x2="14428" y2="586" stroke="#9aa0b5" stroke-width="3" opacity="0.8"/>
<circle cx="14428" cy="586" r="8" fill="#9aa0b5"/>
<line x1="11873" y1="196" x2="11948" y2="249" stroke="#9aa0b5" stroke-width="3" opacity="0.8"/>
<circle cx="11948" cy="249" r="8" fill="#9aa0b5"/>
<line x1="12168" y1="306" x2="12168" y2="336" stroke="#9aa0b5" stroke-width="3" opacity="0.8"/>
<circle cx="12168" cy="336" r="8" fill="#9aa0b5"/>
<line x1="12388" y1="249" x2="12568" y2="370" stroke="#9aa0b5" stroke-width="3" opacity="0.8"/>
<circle cx="12568" cy="370" r="8" fill="#9aa0b5"/>
<line x1="11873" y1="752" x2="11948" y2="723" stroke="#9aa0b5" stroke-width="3" opacity="0.8"/>
<circle cx="11948" cy="723" r="8" fill="#9aa0b5"/>
<line x1="12168" y1="780" x2="12168" y2="810" stroke="#9aa0b5" stroke-width="3" opacity="0.8"/>
<circle cx="12168" cy="810" r="8" fill="#9aa0b5"/>
<line x1="12388" y1="723" x2="12568" y2="370" stroke="#9aa0b5" stroke-width="3" opacity="0.8"/>
<circle cx="12568" cy="370" r="8" fill="#9aa0b5"/>
<line x1="14813" y1="-284" x2="14943" y2="-356" stroke="#9aa0b5" stroke-width="3" opacity="0.8"/>
<circle cx="14943" cy="-356" r="8" fill="#9aa0b5"/>
<line x1="15163" y1="-275" x2="15163" y2="-245" stroke="#9aa0b5" stroke-width="3" opacity="0.8"/>
<circle cx="15163" cy="-245" r="8" fill="#9aa0b5"/>
<line x1="14813" y1="-2" x2="14943" y2="70" stroke="#9aa0b5" stroke-width="3" opacity="0.8"/>
<circle cx="14943" cy="70" r="8" fill="#9aa0b5"/>
<line x1="15163" y1="151" x2="15163" y2="181" stroke="#9aa0b5" stroke-width="3" opacity="0.8"/>
<circle cx="15163" cy="181" r="8" fill="#9aa0b5"/>
<line x1="7720" y1="-37" x2="7900" y2="-69" stroke="#9aa0b5" stroke-width="3" opacity="0.8"/>
<circle cx="7900" cy="-69" r="8" fill="#9aa0b5"/>
<line x1="7720" y1="410" x2="7900" y2="410" stroke="#9aa0b5" stroke-width="3" opacity="0.8"/>
<circle cx="7900" cy="410" r="8" fill="#9aa0b5"/>
<line x1="2740" y1="755" x2="8208" y2="4" stroke="#9aa0b5" stroke-width="3" opacity="0.8"/>
<circle cx="8208" cy="4" r="8" fill="#9aa0b5"/>
<line x1="2740" y1="755" x2="2985" y2="852" stroke="#9aa0b5" stroke-width="3" opacity="0.8"/>
<circle cx="2985" cy="852" r="8" fill="#9aa0b5"/>
<line x1="2740" y1="1169" x2="8208" y2="638" stroke="#9aa0b5" stroke-width="3" opacity="0.8"/>
<circle cx="8208" cy="638" r="8" fill="#9aa0b5"/>
<line x1="2740" y1="1169" x2="2985" y2="1296" stroke="#9aa0b5" stroke-width="3" opacity="0.8"/>
<circle cx="2985" cy="1296" r="8" fill="#9aa0b5"/>
<line x1="9608" y1="68" x2="9853" y2="271" stroke="#9aa0b5" stroke-width="3" opacity="0.8"/>
<circle cx="9853" cy="271" r="8" fill="#9aa0b5"/>
<line x1="9608" y1="686" x2="9853" y2="622" stroke="#9aa0b5" stroke-width="3" opacity="0.8"/>
<circle cx="9853" cy="622" r="8" fill="#9aa0b5"/>
<line x1="4440" y1="824" x2="4620" y2="822" stroke="#9aa0b5" stroke-width="3" opacity="0.8"/>
<circle cx="4620" cy="822" r="8" fill="#9aa0b5"/>
<line x1="4440" y1="1307" x2="4620" y2="1308" stroke="#9aa0b5" stroke-width="3" opacity="0.8"/>
<circle cx="4620" cy="1308" r="8" fill="#9aa0b5"/>
<line x1="11308" y1="-37" x2="11488" y2="-213" stroke="#9aa0b5" stroke-width="3" opacity="0.8"/>
<circle cx="11488" cy="-213" r="8" fill="#9aa0b5"/>
<line x1="11308" y1="130" x2="11488" y2="196" stroke="#9aa0b5" stroke-width="3" opacity="0.8"/>
<circle cx="11488" cy="196" r="8" fill="#9aa0b5"/>
<line x1="11308" y1="228" x2="11488" y2="196" stroke="#9aa0b5" stroke-width="3" opacity="0.8"/>
<circle cx="11488" cy="196" r="8" fill="#9aa0b5"/>
<line x1="11308" y1="1060" x2="11488" y2="1198" stroke="#9aa0b5" stroke-width="3" opacity="0.8"/>
<circle cx="11488" cy="1198" r="8" fill="#9aa0b5"/>
<line x1="11308" y1="726" x2="11488" y2="752" stroke="#9aa0b5" stroke-width="3" opacity="0.8"/>
<circle cx="11488" cy="752" r="8" fill="#9aa0b5"/>
<line x1="11308" y1="824" x2="11488" y2="752" stroke="#9aa0b5" stroke-width="3" opacity="0.8"/>
<circle cx="11488" cy="752" r="8" fill="#9aa0b5"/>
<line x1="8028" y1="-69" x2="8208" y2="4" stroke="#9aa0b5" stroke-width="3" opacity="0.8"/>
<circle cx="8208" cy="4" r="8" fill="#9aa0b5"/>
<line x1="8028" y1="410" x2="8208" y2="638" stroke="#9aa0b5" stroke-width="3" opacity="0.8"/>
<circle cx="8208" cy="638" r="8" fill="#9aa0b5"/>
<line x1="540" y1="592" x2="1340" y2="736" stroke="#9aa0b5" stroke-width="3" opacity="0.8"/>
<circle cx="1340" cy="736" r="8" fill="#9aa0b5"/>
<text x="940" y="658" fill="#cfd3e0" font-size="22" text-anchor="middle">AddTopic</text>
<line x1="540" y1="592" x2="1340" y2="1018" stroke="#9aa0b5" stroke-width="3" opacity="0.8"/>
<circle cx="1340" cy="1018" r="8" fill="#9aa0b5"/>
<text x="940" y="799" fill="#cfd3e0" font-size="22" text-anchor="middle">AddTopic</text>
<line x1="540" y1="592" x2="1340" y2="172" stroke="#9aa0b5" stroke-width="3" opacity="0.8"/>
<circle cx="1340" cy="172" r="8" fill="#9aa0b5"/>
<text x="940" y="376" fill="#cfd3e0" font-size="22" text-anchor="middle">AddTopic</text>
<line x1="540" y1="592" x2="1340" y2="454" stroke="#9aa0b5" stroke-width="3" opacity="0.8"/>
<circle cx="1340" cy="454" r="8" fill="#9aa0b5"/>
<text x="940" y="517" fill="#cfd3e0" font-size="22" text-anchor="middle">AddTopic</text>
<line x1="3425" y1="-488" x2="9288" y2="-191" stroke="#9aa0b5" stroke-width="3" opacity="0.8"/>
<circle cx="9288" cy="-191" r="8" fill="#9aa0b5"/>
<text x="6356.5" y="-345.5" fill="#cfd3e0" font-size="22" text-anchor="middle">AddTopic</text>
<line x1="3425" y1="-14" x2="9288" y2="933" stroke="#9aa0b5" stroke-width="3" opacity="0.8"/>
<circle cx="9288" cy="933" r="8" fill="#9aa0b5"/>
<text x="6356.5" y="453.5" fill="#cfd3e0" font-size="22" text-anchor="middle">AddTopic</text>
<line x1="9108" y1="-7" x2="9288" y2="-191" stroke="#9aa0b5" stroke-width="3" opacity="0.8"/>
<circle cx="9288" cy="-191" r="8" fill="#9aa0b5"/>
<text x="9198" y="-105" fill="#cfd3e0" font-size="22" text-anchor="middle">AddTopic</text>
<line x1="9108" y1="588" x2="9288" y2="933" stroke="#9aa0b5" stroke-width="3" opacity="0.8"/>
<circle cx="9288" cy="933" r="8" fill="#9aa0b5"/>
<text x="9198" y="754.5" fill="#cfd3e0" font-size="22" text-anchor="middle">AddTopic</text>
<line x1="2240" y1="34" x2="2420" y2="-243" stroke="#9aa0b5" stroke-width="3" opacity="0.8"/>
<circle cx="2420" cy="-243" r="8" fill="#9aa0b5"/>
<text x="2330" y="-110.5" fill="#cfd3e0" font-size="22" text-anchor="middle">AddTopic</text>
<line x1="2240" y1="34" x2="2420" y2="15" stroke="#9aa0b5" stroke-width="3" opacity="0.8"/>
<circle cx="2420" cy="15" r="8" fill="#9aa0b5"/>
<text x="2330" y="18.5" fill="#cfd3e0" font-size="22" text-anchor="middle">AddTopic</text>
<line x1="2240" y1="34" x2="2420" y2="261" stroke="#9aa0b5" stroke-width="3" opacity="0.8"/>
<circle cx="2420" cy="261" r="8" fill="#9aa0b5"/>
<text x="2330" y="141.5" fill="#cfd3e0" font-size="22" text-anchor="middle">AddTopic</text>
<line x1="12388" y1="-297" x2="12568" y2="-300" stroke="#9aa0b5" stroke-width="3" opacity="0.8"/>
<circle cx="12568" cy="-300" r="8" fill="#9aa0b5"/>
<text x="12478" y="-304.5" fill="#cfd3e0" font-size="22" text-anchor="middle">AddTopic</text>
<line x1="12388" y1="1293" x2="12568" y2="1377" stroke="#9aa0b5" stroke-width="3" opacity="0.8"/>
<circle cx="12568" cy="1377" r="8" fill="#9aa0b5"/>
<text x="12478" y="1329" fill="#cfd3e0" font-size="22" text-anchor="middle">AddTopic</text>
<line x1="-80" y1="-123" x2="100" y2="-123" stroke="#9aa0b5" stroke-width="3" opacity="0.8"/>
<circle cx="100" cy="-123" r="8" fill="#9aa0b5"/>
<line x1="1160" y1="639" x2="1340" y2="454" stroke="#9aa0b5" stroke-width="3" opacity="0.8"/>
<circle cx="1340" cy="454" r="8" fill="#9aa0b5"/>
<line x1="1160" y1="639" x2="1340" y2="1018" stroke="#9aa0b5" stroke-width="3" opacity="0.8"/>
<circle cx="1340" cy="1018" r="8" fill="#9aa0b5"/>
<line x1="1160" y1="639" x2="1340" y2="172" stroke="#9aa0b5" stroke-width="3" opacity="0.8"/>
<circle cx="1340" cy="172" r="8" fill="#9aa0b5"/>
<line x1="1160" y1="639" x2="1340" y2="736" stroke="#9aa0b5" stroke-width="3" opacity="0.8"/>
<circle cx="1340" cy="736" r="8" fill="#9aa0b5"/>
<line x1="6140" y1="1013" x2="6320" y2="1383" stroke="#9aa0b5" stroke-width="3" opacity="0.8"/>
<circle cx="6320" cy="1383" r="8" fill="#9aa0b5"/>
<line x1="6140" y1="1013" x2="6320" y2="1689" stroke="#9aa0b5" stroke-width="3" opacity="0.8"/>
<circle cx="6320" cy="1689" r="8" fill="#9aa0b5"/>
<line x1="13008" y1="752" x2="13188" y2="753" stroke="#9aa0b5" stroke-width="3" opacity="0.8"/>
<circle cx="13188" cy="753" r="8" fill="#9aa0b5"/>
<line x1="13008" y1="752" x2="13188" y2="1035" stroke="#9aa0b5" stroke-width="3" opacity="0.8"/>
<circle cx="13188" cy="1035" r="8" fill="#9aa0b5"/>
<line x1="13628" y1="373" x2="13808" y2="241" stroke="#9aa0b5" stroke-width="3" opacity="0.8"/>
<circle cx="13808" cy="241" r="8" fill="#9aa0b5"/>
<line x1="13628" y1="373" x2="13808" y2="523" stroke="#9aa0b5" stroke-width="3" opacity="0.8"/>
<circle cx="13808" cy="523" r="8" fill="#9aa0b5"/>
<line x1="14248" y1="-61" x2="14428" y2="-284" stroke="#9aa0b5" stroke-width="3" opacity="0.8"/>
<circle cx="14428" cy="-284" r="8" fill="#9aa0b5"/>
<line x1="14248" y1="-61" x2="14428" y2="-2" stroke="#9aa0b5" stroke-width="3" opacity="0.8"/>
<circle cx="14428" cy="-2" r="8" fill="#9aa0b5"/>
<line x1="6140" y1="1013" x2="11488" y2="-213" stroke="#9aa0b5" stroke-width="3" opacity="0.8"/>
<circle cx="11488" cy="-213" r="8" fill="#9aa0b5"/>
<line x1="6140" y1="1013" x2="11488" y2="1198" stroke="#9aa0b5" stroke-width="3" opacity="0.8"/>
<circle cx="11488" cy="1198" r="8" fill="#9aa0b5"/>
<line x1="6140" y1="1013" x2="6320" y2="113" stroke="#9aa0b5" stroke-width="3" opacity="0.8"/>
<circle cx="6320" cy="113" r="8" fill="#9aa0b5"/>
<line x1="6140" y1="1013" x2="6320" y2="627" stroke="#9aa0b5" stroke-width="3" opacity="0.8"/>
<circle cx="6320" cy="627" r="8" fill="#9aa0b5"/>
<line x1="13008" y1="752" x2="13188" y2="373" stroke="#9aa0b5" stroke-width="3" opacity="0.8"/>
<circle cx="13188" cy="373" r="8" fill="#9aa0b5"/>
<line x1="13628" y1="373" x2="13808" y2="-61" stroke="#9aa0b5" stroke-width="3" opacity="0.8"/>
<circle cx="13808" cy="-61" r="8" fill="#9aa0b5"/>
<rect x="-520" y="-216" width="440" height="186" rx="10" fill="#4a4a7a" fill-opacity="0.55" stroke="#4a4a7a" stroke-width="3"/>
<text x="-510" y="-190" fill="#e8e8e8" font-size="20">OAAB_TVos_HauntedLantern 10</text>
<rect x="720" y="522" width="440" height="234" rx="10" fill="#4a4a7a" fill-opacity="0.55" stroke="#4a4a7a" stroke-width="3"/>
<text x="730" y="548" fill="#e8e8e8" font-size="20">OAAB_TVos_HauntedLantern 20</text>
<rect x="5700" y="956" width="440" height="114" rx="10" fill="#4a4a7a" fill-opacity="0.55" stroke="#4a4a7a" stroke-width="3"/>
<text x="5710" y="982" fill="#e8e8e8" font-size="20">OAAB_TVos_HauntedLantern 22</text>
<rect x="12568" y="623" width="440" height="258" rx="10" fill="#4a4a7a" fill-opacity="0.55" stroke="#4a4a7a" stroke-width="3"/>
<text x="12578" y="649" fill="#e8e8e8" font-size="20">OAAB_TVos_HauntedLantern 30</text>
<rect x="13188" y="280" width="440" height="186" rx="10" fill="#4a4a7a" fill-opacity="0.55" stroke="#4a4a7a" stroke-width="3"/>
<text x="13198" y="306" fill="#e8e8e8" font-size="20">OAAB_TVos_HauntedLantern 100</text>
<rect x="13808" y="-142" width="440" height="162" rx="10" fill="#4a4a7a" fill-opacity="0.55" stroke="#4a4a7a" stroke-width="3"/>
<text x="13818" y="-116" fill="#e8e8e8" font-size="20">OAAB_TVos_HauntedLantern 110</text>
<rect x="12568" y="277" width="440" height="186" rx="10" fill="#4a4a7a" fill-opacity="0.55" stroke="#4a4a7a" stroke-width="3"/>
<text x="12578" y="303" fill="#e8e8e8" font-size="20">OAAB_TVos_HauntedLantern 120</text>
<rect x="720" y="-171" width="440" height="96" rx="10" fill="#6b6b35" fill-opacity="0.55" stroke="#6b6b35" stroke-width="3"/>
<text x="730" y="-145" fill="#e8e8e8" font-size="20">Greeting 1 ~1645</text>
<rect x="100" y="-172" width="385" height="98" rx="10" fill="#3d6b40" fill-opacity="0.55" stroke="#3d6b40" stroke-width="3"/>
<text x="110" y="-146" fill="#e8e8e8" font-size="20">Disposition = 0</text>
<text x="110" y="-120" fill="#b8b8b8" font-size="17">ID = ABtv_WildAshlander</text>
<rect x="100" y="487" width="440" height="210" rx="10" fill="#6b6b35" fill-opacity="0.55" stroke="#6b6b35" stroke-width="3"/>
<text x="110" y="513" fill="#e8e8e8" font-size="20">Greeting 1 ~57</text>
<rect x="-520" y="555" width="385" height="74" rx="10" fill="#3d6b40" fill-opacity="0.55" stroke="#3d6b40" stroke-width="3"/>
<text x="-510" y="581" fill="#e8e8e8" font-size="20">Disposition = 0</text>
<text x="-510" y="607" fill="#b8b8b8" font-size="17">ID = ABtv_WildAshlander</text>
<rect x="100" y="727" width="440" height="146" rx="10" fill="#4a4a7a" fill-opacity="0.55" stroke="#4a4a7a" stroke-width="3"/>
<text x="110" y="753" fill="#e8e8e8" font-size="20">Journal [[OAAB_TVos_HauntedLantern 20#^obs</text>
<text x="110" y="779" fill="#b8b8b8" font-size="17">AddTopic "[[Salkurnudai]]"</text>
<rect x="2985" y="-605" width="440" height="234" rx="10" fill="#6b6b35" fill-opacity="0.55" stroke="#6b6b35" stroke-width="3"/>
<text x="2995" y="-579" fill="#e8e8e8" font-size="20">ghost lantern ~0</text>
<rect x="2420" y="-292" width="385" height="98" rx="10" fill="#3d6b40" fill-opacity="0.55" stroke="#3d6b40" stroke-width="3"/>
<text x="2430" y="-266" fill="#e8e8e8" font-size="20">Disposition = 0</text>
<text x="2430" y="-240" fill="#b8b8b8" font-size="17">Class = Wise Woman Service</text>
<rect x="2985" y="-341" width="440" height="50" rx="10" fill="#2f6b66" fill-opacity="0.55" stroke="#2f6b66" stroke-width="3"/>
<text x="2995" y="-315" fill="#e8e8e8" font-size="20">AddTopic "[[Sunna Guradan]]"</text>
<rect x="2985" y="-131" width="440" height="234" rx="10" fill="#6b6b35" fill-opacity="0.55" stroke="#6b6b35" stroke-width="3"/>
<text x="2995" y="-105" fill="#e8e8e8" font-size="20">ghost lantern ~1</text>
<rect x="2420" y="-34" width="385" height="98" rx="10" fill="#3d6b40" fill-opacity="0.55" stroke="#3d6b40" stroke-width="3"/>
<text x="2430" y="-8" fill="#e8e8e8" font-size="20">Disposition = 0</text>
<text x="2430" y="18" fill="#b8b8b8" font-size="17">Class = Wise Woman</text>
<rect x="2985" y="133" width="440" height="50" rx="10" fill="#2f6b66" fill-opacity="0.55" stroke="#2f6b66" stroke-width="3"/>
<text x="2995" y="159" fill="#e8e8e8" font-size="20">AddTopic "[[Sunna Guradan]]"</text>
<rect x="2985" y="343" width="440" height="162" rx="10" fill="#6b6b35" fill-opacity="0.55" stroke="#6b6b35" stroke-width="3"/>
<text x="2995" y="369" fill="#e8e8e8" font-size="20">ghost lantern ~2</text>
<rect x="2420" y="224" width="385" height="74" rx="10" fill="#3d6b40" fill-opacity="0.55" stroke="#3d6b40" stroke-width="3"/>
<text x="2430" y="250" fill="#e8e8e8" font-size="20">Disposition = 0</text>
<text x="2430" y="276" fill="#b8b8b8" font-size="17">Faction = Ashlanders</text>
<rect x="13188" y="-429" width="440" height="258" rx="10" fill="#6b6b35" fill-opacity="0.55" stroke="#6b6b35" stroke-width="3"/>
<text x="13198" y="-403" fill="#e8e8e8" font-size="20">Molaguradan ~13</text>
<rect x="12568" y="-349" width="385" height="98" rx="10" fill="#3d6b40" fill-opacity="0.55" stroke="#3d6b40" stroke-width="3"/>
<text x="12578" y="-323" fill="#e8e8e8" font-size="20">Disposition = 0</text>
<text x="12578" y="-297" fill="#b8b8b8" font-size="17">Class = Wise Woman Service</text>
<rect x="13188" y="1256" width="440" height="258" rx="10" fill="#6b6b35" fill-opacity="0.55" stroke="#6b6b35" stroke-width="3"/>
<text x="13198" y="1282" fill="#e8e8e8" font-size="20">Molaguradan ~14</text>
<rect x="12568" y="1328" width="385" height="98" rx="10" fill="#3d6b40" fill-opacity="0.55" stroke="#3d6b40" stroke-width="3"/>
<text x="12578" y="1354" fill="#e8e8e8" font-size="20">Disposition = 0</text>
<text x="12578" y="1380" fill="#b8b8b8" font-size="17">Class = Wise Woman</text>
<rect x="9853" y="-431" width="440" height="306" rx="10" fill="#6b6b35" fill-opacity="0.55" stroke="#6b6b35" stroke-width="3"/>
<text x="9863" y="-405" fill="#e8e8e8" font-size="20">Sunna Guradan ~0</text>
<rect x="9288" y="-240" width="385" height="98" rx="10" fill="#3d6b40" fill-opacity="0.55" stroke="#3d6b40" stroke-width="3"/>
<text x="9298" y="-214" fill="#e8e8e8" font-size="20">Disposition = 0</text>
<text x="9298" y="-188" fill="#b8b8b8" font-size="17">Class = Wise Woman Service</text>
<rect x="9853" y="867" width="440" height="306" rx="10" fill="#6b6b35" fill-opacity="0.55" stroke="#6b6b35" stroke-width="3"/>
<text x="9863" y="893" fill="#e8e8e8" font-size="20">Sunna Guradan ~1</text>
<rect x="9288" y="884" width="385" height="98" rx="10" fill="#3d6b40" fill-opacity="0.55" stroke="#3d6b40" stroke-width="3"/>
<text x="9298" y="910" fill="#e8e8e8" font-size="20">Disposition = 0</text>
<text x="9298" y="936" fill="#b8b8b8" font-size="17">Class = Wise Woman</text>
<rect x="1800" y="-59" width="440" height="186" rx="10" fill="#6b6b35" fill-opacity="0.55" stroke="#6b6b35" stroke-width="3"/>
<text x="1810" y="-33" fill="#e8e8e8" font-size="20">Salkurnudai ~24</text>
<rect x="1340" y="111" width="385" height="122" rx="10" fill="#3d6b40" fill-opacity="0.55" stroke="#3d6b40" stroke-width="3"/>
<text x="1350" y="137" fill="#e8e8e8" font-size="20">Disposition = 0</text>
<text x="1350" y="163" fill="#b8b8b8" font-size="17">Faction = Ashlanders</text>
<rect x="1800" y="157" width="440" height="50" rx="10" fill="#2f6b66" fill-opacity="0.55" stroke="#2f6b66" stroke-width="3"/>
<text x="1810" y="183" fill="#e8e8e8" font-size="20">AddTopic "[[Ghost Lantern]]"</text>
<rect x="1800" y="388" width="440" height="114" rx="10" fill="#6b6b35" fill-opacity="0.55" stroke="#6b6b35" stroke-width="3"/>
<text x="1810" y="414" fill="#e8e8e8" font-size="20">Salkurnudai ~25</text>
<rect x="1340" y="393" width="385" height="122" rx="10" fill="#3d6b40" fill-opacity="0.55" stroke="#3d6b40" stroke-width="3"/>
<text x="1350" y="419" fill="#e8e8e8" font-size="20">Disposition = 0</text>
<text x="1350" y="445" fill="#b8b8b8" font-size="17">Faction = Ashlanders</text>
<rect x="6780" y="-23" width="440" height="114" rx="10" fill="#6b6b35" fill-opacity="0.55" stroke="#6b6b35" stroke-width="3"/>
<text x="6790" y="3" fill="#e8e8e8" font-size="20">Salkurnudai ~18</text>
<rect x="6320" y="40" width="385" height="146" rx="10" fill="#3d6b40" fill-opacity="0.55" stroke="#3d6b40" stroke-width="3"/>
<text x="6330" y="66" fill="#e8e8e8" font-size="20">Disposition = 0</text>
<text x="6330" y="92" fill="#b8b8b8" font-size="17">Class = Wise Woman Service</text>
<rect x="7400" y="-62" width="320" height="50" rx="10" fill="#3d6b40" fill-opacity="0.55" stroke="#3d6b40" stroke-width="3"/>
<text x="7410" y="-36" fill="#e8e8e8" font-size="20">"[Continue]" - Choice 1</text>
<rect x="6780" y="345" width="440" height="114" rx="10" fill="#6b6b35" fill-opacity="0.55" stroke="#6b6b35" stroke-width="3"/>
<text x="6790" y="371" fill="#e8e8e8" font-size="20">Salkurnudai ~19</text>
<rect x="6320" y="554" width="385" height="146" rx="10" fill="#3d6b40" fill-opacity="0.55" stroke="#3d6b40" stroke-width="3"/>
<text x="6330" y="580" fill="#e8e8e8" font-size="20">Disposition = 0</text>
<text x="6330" y="606" fill="#b8b8b8" font-size="17">Class = Wise Woman</text>
<rect x="7400" y="385" width="320" height="50" rx="10" fill="#3d6b40" fill-opacity="0.55" stroke="#3d6b40" stroke-width="3"/>
<text x="7410" y="411" fill="#e8e8e8" font-size="20">"[Continue]" - Choice 1</text>
<rect x="1800" y="662" width="440" height="186" rx="10" fill="#6b6b35" fill-opacity="0.55" stroke="#6b6b35" stroke-width="3"/>
<text x="1810" y="688" fill="#e8e8e8" font-size="20">Salkurnudai ~22</text>
<rect x="1340" y="675" width="385" height="122" rx="10" fill="#3d6b40" fill-opacity="0.55" stroke="#3d6b40" stroke-width="3"/>
<text x="1350" y="701" fill="#e8e8e8" font-size="20">Disposition = 0</text>
<text x="1350" y="727" fill="#b8b8b8" font-size="17">Class = Wise Woman Service</text>
<rect x="2420" y="718" width="320" height="74" rx="10" fill="#3d6b40" fill-opacity="0.55" stroke="#3d6b40" stroke-width="3"/>
<text x="2430" y="744" fill="#e8e8e8" font-size="20">"[Tell her about the ashlander and the eer</text>
<rect x="1800" y="1016" width="440" height="186" rx="10" fill="#6b6b35" fill-opacity="0.55" stroke="#6b6b35" stroke-width="3"/>
<text x="1810" y="1042" fill="#e8e8e8" font-size="20">Salkurnudai ~23</text>
<rect x="1340" y="957" width="385" height="122" rx="10" fill="#3d6b40" fill-opacity="0.55" stroke="#3d6b40" stroke-width="3"/>
<text x="1350" y="983" fill="#e8e8e8" font-size="20">Disposition = 0</text>
<text x="1350" y="1009" fill="#b8b8b8" font-size="17">Class = Wise Woman</text>
<rect x="2420" y="1132" width="320" height="74" rx="10" fill="#3d6b40" fill-opacity="0.55" stroke="#3d6b40" stroke-width="3"/>
<text x="2430" y="1158" fill="#e8e8e8" font-size="20">"[Tell her about the ashlander and the eer</text>
<rect x="8668" y="-148" width="440" height="282" rx="10" fill="#6b6b35" fill-opacity="0.55" stroke="#6b6b35" stroke-width="3"/>
<text x="8678" y="-122" fill="#e8e8e8" font-size="20">Salkurnudai ~14</text>
<rect x="8208" y="-93" width="385" height="194" rx="10" fill="#3d6b40" fill-opacity="0.55" stroke="#3d6b40" stroke-width="3"/>
<text x="8218" y="-67" fill="#e8e8e8" font-size="20">Disposition = 0</text>
<text x="8218" y="-41" fill="#b8b8b8" font-size="17">Class = Wise Woman Service</text>
<rect x="8668" y="164" width="440" height="50" rx="10" fill="#2f6b66" fill-opacity="0.55" stroke="#2f6b66" stroke-width="3"/>
<text x="8678" y="190" fill="#e8e8e8" font-size="20">AddTopic "[[Sunna Guradan]]"</text>
<rect x="9288" y="43" width="320" height="50" rx="10" fill="#3d6b40" fill-opacity="0.55" stroke="#3d6b40" stroke-width="3"/>
<text x="9298" y="69" fill="#e8e8e8" font-size="20">"[Continue.]" - Choice 2</text>
<rect x="8668" y="447" width="440" height="282" rx="10" fill="#6b6b35" fill-opacity="0.55" stroke="#6b6b35" stroke-width="3"/>
<text x="8678" y="473" fill="#e8e8e8" font-size="20">Salkurnudai ~15</text>
<rect x="8208" y="541" width="385" height="194" rx="10" fill="#3d6b40" fill-opacity="0.55" stroke="#3d6b40" stroke-width="3"/>
<text x="8218" y="567" fill="#e8e8e8" font-size="20">Disposition = 0</text>
<text x="8218" y="593" fill="#b8b8b8" font-size="17">Class = Wise Woman</text>
<rect x="8668" y="759" width="440" height="50" rx="10" fill="#2f6b66" fill-opacity="0.55" stroke="#2f6b66" stroke-width="3"/>
<text x="8678" y="785" fill="#e8e8e8" font-size="20">AddTopic "[[Sunna Guradan]]"</text>
<rect x="9288" y="661" width="320" height="50" rx="10" fill="#3d6b40" fill-opacity="0.55" stroke="#3d6b40" stroke-width="3"/>
<text x="9298" y="687" fill="#e8e8e8" font-size="20">"[Continue.]" - Choice 2</text>
<rect x="3500" y="753" width="440" height="162" rx="10" fill="#6b6b35" fill-opacity="0.55" stroke="#6b6b35" stroke-width="3"/>
<text x="3510" y="779" fill="#e8e8e8" font-size="20">Salkurnudai ~16</text>
<rect x="2985" y="755" width="385" height="194" rx="10" fill="#3d6b40" fill-opacity="0.55" stroke="#3d6b40" stroke-width="3"/>
<text x="2995" y="781" fill="#e8e8e8" font-size="20">Disposition = 0</text>
<text x="2995" y="807" fill="#b8b8b8" font-size="17">Class = Wise Woman Service</text>
<rect x="4120" y="799" width="320" height="50" rx="10" fill="#3d6b40" fill-opacity="0.55" stroke="#3d6b40" stroke-width="3"/>
<text x="4130" y="825" fill="#e8e8e8" font-size="20">"I did not bring it." - Choice 5</text>
<rect x="3500" y="1222" width="440" height="162" rx="10" fill="#6b6b35" fill-opacity="0.55" stroke="#6b6b35" stroke-width="3"/>
<text x="3510" y="1248" fill="#e8e8e8" font-size="20">Salkurnudai ~17</text>
<rect x="2985" y="1199" width="385" height="194" rx="10" fill="#3d6b40" fill-opacity="0.55" stroke="#3d6b40" stroke-width="3"/>
<text x="2995" y="1225" fill="#e8e8e8" font-size="20">Disposition = 0</text>
<text x="2995" y="1251" fill="#b8b8b8" font-size="17">Class = Wise Woman</text>
<rect x="4120" y="1282" width="320" height="50" rx="10" fill="#3d6b40" fill-opacity="0.55" stroke="#3d6b40" stroke-width="3"/>
<text x="4130" y="1308" fill="#e8e8e8" font-size="20">"I did not bring it." - Choice 5</text>
<rect x="10368" y="68" width="440" height="282" rx="10" fill="#6b6b35" fill-opacity="0.55" stroke="#6b6b35" stroke-width="3"/>
<text x="10378" y="94" fill="#e8e8e8" font-size="20">Salkurnudai ~12</text>
<rect x="9853" y="186" width="385" height="170" rx="10" fill="#3d6b40" fill-opacity="0.55" stroke="#3d6b40" stroke-width="3"/>
<text x="9863" y="212" fill="#e8e8e8" font-size="20">Disposition = 0</text>
<text x="9863" y="238" fill="#b8b8b8" font-size="17">Class = Wise Woman Service</text>
<rect x="10988" y="-74" width="320" height="74" rx="10" fill="#3d6b40" fill-opacity="0.55" stroke="#3d6b40" stroke-width="3"/>
<text x="10998" y="-48" fill="#e8e8e8" font-size="20">"It would be an honor, Wise Woman." - Choi</text>
<rect x="10988" y="93" width="320" height="74" rx="10" fill="#3d6b40" fill-opacity="0.55" stroke="#3d6b40" stroke-width="3"/>
<text x="10998" y="119" fill="#e8e8e8" font-size="20">"I'm afraid I cannot accept this responsib</text>
<rect x="10988" y="191" width="320" height="74" rx="10" fill="#3d6b40" fill-opacity="0.55" stroke="#3d6b40" stroke-width="3"/>
<text x="10998" y="217" fill="#e8e8e8" font-size="20">"Here, take the lantern. I want no part of</text>
<rect x="10368" y="704" width="440" height="282" rx="10" fill="#6b6b35" fill-opacity="0.55" stroke="#6b6b35" stroke-width="3"/>
<text x="10378" y="730" fill="#e8e8e8" font-size="20">Salkurnudai ~13</text>
<rect x="9853" y="537" width="385" height="170" rx="10" fill="#3d6b40" fill-opacity="0.55" stroke="#3d6b40" stroke-width="3"/>
<text x="9863" y="563" fill="#e8e8e8" font-size="20">Disposition = 0</text>
<text x="9863" y="589" fill="#b8b8b8" font-size="17">Class = Wise Woman</text>
<rect x="10988" y="1023" width="320" height="74" rx="10" fill="#3d6b40" fill-opacity="0.55" stroke="#3d6b40" stroke-width="3"/>
<text x="10998" y="1049" fill="#e8e8e8" font-size="20">"It would be an honor, Wise Woman." - Choi</text>
<rect x="10988" y="689" width="320" height="74" rx="10" fill="#3d6b40" fill-opacity="0.55" stroke="#3d6b40" stroke-width="3"/>
<text x="10998" y="715" fill="#e8e8e8" font-size="20">"I'm afraid I cannot accept this responsib</text>
<rect x="10988" y="787" width="320" height="74" rx="10" fill="#3d6b40" fill-opacity="0.55" stroke="#3d6b40" stroke-width="3"/>
<text x="10998" y="813" fill="#e8e8e8" font-size="20">"Here, take the lantern. I want no part of</text>
<rect x="5080" y="614" width="440" height="114" rx="10" fill="#6b6b35" fill-opacity="0.55" stroke="#6b6b35" stroke-width="3"/>
<text x="5090" y="640" fill="#e8e8e8" font-size="20">Salkurnudai ~6</text>
<rect x="4620" y="749" width="385" height="146" rx="10" fill="#3d6b40" fill-opacity="0.55" stroke="#3d6b40" stroke-width="3"/>
<text x="4630" y="775" fill="#e8e8e8" font-size="20">Disposition = 0</text>
<text x="4630" y="801" fill="#b8b8b8" font-size="17">Class = Wise Woman Service</text>
<rect x="5080" y="758" width="440" height="122" rx="10" fill="#4a4a7a" fill-opacity="0.55" stroke="#4a4a7a" stroke-width="3"/>
<text x="5090" y="784" fill="#e8e8e8" font-size="20">Journal [[OAAB_TVos_HauntedLantern 22#^obs</text>
<text x="5090" y="810" fill="#b8b8b8" font-size="17">Goodbye</text>
<rect x="5080" y="1177" width="440" height="114" rx="10" fill="#6b6b35" fill-opacity="0.55" stroke="#6b6b35" stroke-width="3"/>
<text x="5090" y="1203" fill="#e8e8e8" font-size="20">Salkurnudai ~7</text>
<rect x="4620" y="1235" width="385" height="146" rx="10" fill="#3d6b40" fill-opacity="0.55" stroke="#3d6b40" stroke-width="3"/>
<text x="4630" y="1261" fill="#e8e8e8" font-size="20">Disposition = 0</text>
<text x="4630" y="1287" fill="#b8b8b8" font-size="17">Class = Wise Woman</text>
<rect x="5080" y="1321" width="440" height="122" rx="10" fill="#4a4a7a" fill-opacity="0.55" stroke="#4a4a7a" stroke-width="3"/>
<text x="5090" y="1347" fill="#e8e8e8" font-size="20">Journal [[OAAB_TVos_HauntedLantern 22#^obs</text>
<text x="5090" y="1373" fill="#b8b8b8" font-size="17">Goodbye</text>
<rect x="11948" y="-450" width="440" height="306" rx="10" fill="#6b6b35" fill-opacity="0.55" stroke="#6b6b35" stroke-width="3"/>
<text x="11958" y="-424" fill="#e8e8e8" font-size="20">Salkurnudai ~8</text>
<rect x="11488" y="-298" width="385" height="170" rx="10" fill="#3d6b40" fill-opacity="0.55" stroke="#3d6b40" stroke-width="3"/>
<text x="11498" y="-272" fill="#e8e8e8" font-size="20">Disposition = 0</text>
<text x="11498" y="-246" fill="#b8b8b8" font-size="17">Class = Wise Woman Service</text>
<rect x="11948" y="-114" width="440" height="146" rx="10" fill="#4a4a7a" fill-opacity="0.55" stroke="#4a4a7a" stroke-width="3"/>
<text x="11958" y="-88" fill="#e8e8e8" font-size="20">Journal [[OAAB_TVos_HauntedLantern 30#^obs</text>
<text x="11958" y="-62" fill="#b8b8b8" font-size="17">Player-&gt;Equip "ABtv_light_AshlLanternGhost"</text>
<rect x="11948" y="1140" width="440" height="306" rx="10" fill="#6b6b35" fill-opacity="0.55" stroke="#6b6b35" stroke-width="3"/>
<text x="11958" y="1166" fill="#e8e8e8" font-size="20">Salkurnudai ~9</text>
<rect x="11488" y="1113" width="385" height="170" rx="10" fill="#3d6b40" fill-opacity="0.55" stroke="#3d6b40" stroke-width="3"/>
<text x="11498" y="1139" fill="#e8e8e8" font-size="20">Disposition = 0</text>
<text x="11498" y="1165" fill="#b8b8b8" font-size="17">Class = Wise Woman</text>
<rect x="11948" y="1476" width="440" height="146" rx="10" fill="#4a4a7a" fill-opacity="0.55" stroke="#4a4a7a" stroke-width="3"/>
<text x="11958" y="1502" fill="#e8e8e8" font-size="20">Journal [[OAAB_TVos_HauntedLantern 30#^obs</text>
<text x="11958" y="1528" fill="#b8b8b8" font-size="17">Player-&gt;Equip "ABtv_light_AshlLanternGhost"</text>
<rect x="6780" y="1302" width="440" height="114" rx="10" fill="#6b6b35" fill-opacity="0.55" stroke="#6b6b35" stroke-width="3"/>
<text x="6790" y="1328" fill="#e8e8e8" font-size="20">Salkurnudai ~20</text>
<rect x="6320" y="1310" width="385" height="146" rx="10" fill="#3d6b40" fill-opacity="0.55" stroke="#3d6b40" stroke-width="3"/>
<text x="6330" y="1336" fill="#e8e8e8" font-size="20">Disposition = 0</text>
<text x="6330" y="1362" fill="#b8b8b8" font-size="17">Class = Wise Woman Service</text>
<rect x="6780" y="1446" width="440" height="50" rx="10" fill="#2f6b66" fill-opacity="0.55" stroke="#2f6b66" stroke-width="3"/>
<text x="6790" y="1472" fill="#e8e8e8" font-size="20">Goodbye</text>
<rect x="6780" y="1656" width="440" height="114" rx="10" fill="#6b6b35" fill-opacity="0.55" stroke="#6b6b35" stroke-width="3"/>
<text x="6790" y="1682" fill="#e8e8e8" font-size="20">Salkurnudai ~21</text>
<rect x="6320" y="1616" width="385" height="146" rx="10" fill="#3d6b40" fill-opacity="0.55" stroke="#3d6b40" stroke-width="3"/>
<text x="6330" y="1642" fill="#e8e8e8" font-size="20">Disposition = 0</text>
<text x="6330" y="1668" fill="#b8b8b8" font-size="17">Class = Wise Woman</text>
<rect x="6780" y="1800" width="440" height="50" rx="10" fill="#2f6b66" fill-opacity="0.55" stroke="#2f6b66" stroke-width="3"/>
<text x="6790" y="1826" fill="#e8e8e8" font-size="20">Goodbye</text>
<rect x="13808" y="744" width="440" height="162" rx="10" fill="#6b6b35" fill-opacity="0.55" stroke="#6b6b35" stroke-width="3"/>
<text x="13818" y="770" fill="#e8e8e8" font-size="20">Salkurnudai ~4</text>
<rect x="13188" y="692" width="385" height="122" rx="10" fill="#3d6b40" fill-opacity="0.55" stroke="#3d6b40" stroke-width="3"/>
<text x="13198" y="718" fill="#e8e8e8" font-size="20">Disposition = 0</text>
<text x="13198" y="744" fill="#b8b8b8" font-size="17">Class = Wise Woman Service</text>
<rect x="13808" y="1066" width="440" height="162" rx="10" fill="#6b6b35" fill-opacity="0.55" stroke="#6b6b35" stroke-width="3"/>
<text x="13818" y="1092" fill="#e8e8e8" font-size="20">Salkurnudai ~5</text>
<rect x="13188" y="974" width="385" height="122" rx="10" fill="#3d6b40" fill-opacity="0.55" stroke="#3d6b40" stroke-width="3"/>
<text x="13198" y="1000" fill="#e8e8e8" font-size="20">Disposition = 0</text>
<text x="13198" y="1026" fill="#b8b8b8" font-size="17">Class = Wise Woman</text>
<rect x="14428" y="219" width="440" height="138" rx="10" fill="#6b6b35" fill-opacity="0.55" stroke="#6b6b35" stroke-width="3"/>
<text x="14438" y="245" fill="#e8e8e8" font-size="20">Salkurnudai ~2</text>
<rect x="13808" y="180" width="385" height="122" rx="10" fill="#3d6b40" fill-opacity="0.55" stroke="#3d6b40" stroke-width="3"/>
<text x="13818" y="206" fill="#e8e8e8" font-size="20">Disposition = 0</text>
<text x="13818" y="232" fill="#b8b8b8" font-size="17">Class = Wise Woman Service</text>
<rect x="14428" y="517" width="440" height="138" rx="10" fill="#6b6b35" fill-opacity="0.55" stroke="#6b6b35" stroke-width="3"/>
<text x="14438" y="543" fill="#e8e8e8" font-size="20">Salkurnudai ~3</text>
<rect x="13808" y="462" width="385" height="122" rx="10" fill="#3d6b40" fill-opacity="0.55" stroke="#3d6b40" stroke-width="3"/>
<text x="13818" y="488" fill="#e8e8e8" font-size="20">Disposition = 0</text>
<text x="13818" y="514" fill="#b8b8b8" font-size="17">Class = Wise Woman</text>
<rect x="11948" y="192" width="440" height="114" rx="10" fill="#6b6b35" fill-opacity="0.55" stroke="#6b6b35" stroke-width="3"/>
<text x="11958" y="218" fill="#e8e8e8" font-size="20">Salkurnudai ~10</text>
<rect x="11488" y="111" width="385" height="170" rx="10" fill="#3d6b40" fill-opacity="0.55" stroke="#3d6b40" stroke-width="3"/>
<text x="11498" y="137" fill="#e8e8e8" font-size="20">Disposition = 0</text>
<text x="11498" y="163" fill="#b8b8b8" font-size="17">Class = Wise Woman Service</text>
<rect x="11948" y="336" width="440" height="170" rx="10" fill="#4a4a7a" fill-opacity="0.55" stroke="#4a4a7a" stroke-width="3"/>
<text x="11958" y="362" fill="#e8e8e8" font-size="20">ModDisposition -15</text>
<text x="11958" y="388" fill="#b8b8b8" font-size="17">Journal [[OAAB_TVos_HauntedLantern 120#^obsi</text>
<rect x="11948" y="666" width="440" height="114" rx="10" fill="#6b6b35" fill-opacity="0.55" stroke="#6b6b35" stroke-width="3"/>
<text x="11958" y="692" fill="#e8e8e8" font-size="20">Salkurnudai ~11</text>
<rect x="11488" y="667" width="385" height="170" rx="10" fill="#3d6b40" fill-opacity="0.55" stroke="#3d6b40" stroke-width="3"/>
<text x="11498" y="693" fill="#e8e8e8" font-size="20">Disposition = 0</text>
<text x="11498" y="719" fill="#b8b8b8" font-size="17">Class = Wise Woman</text>
<rect x="11948" y="810" width="440" height="170" rx="10" fill="#4a4a7a" fill-opacity="0.55" stroke="#4a4a7a" stroke-width="3"/>
<text x="11958" y="836" fill="#e8e8e8" font-size="20">ModDisposition -15</text>
<text x="11958" y="862" fill="#b8b8b8" font-size="17">Journal [[OAAB_TVos_HauntedLantern 120#^obsi</text>
<rect x="14943" y="-437" width="440" height="162" rx="10" fill="#6b6b35" fill-opacity="0.55" stroke="#6b6b35" stroke-width="3"/>
<text x="14953" y="-411" fill="#e8e8e8" font-size="20">Salkurnudai ~0</text>
<rect x="14428" y="-345" width="385" height="122" rx="10" fill="#3d6b40" fill-opacity="0.55" stroke="#3d6b40" stroke-width="3"/>
<text x="14438" y="-319" fill="#e8e8e8" font-size="20">Disposition = 0</text>
<text x="14438" y="-293" fill="#b8b8b8" font-size="17">Class = Wise Woman Service</text>
<rect x="14943" y="-245" width="440" height="74" rx="10" fill="#2f6b66" fill-opacity="0.55" stroke="#2f6b66" stroke-width="3"/>
<text x="14953" y="-219" fill="#e8e8e8" font-size="20">ModDisposition -30</text>
<text x="14953" y="-193" fill="#b8b8b8" font-size="17">Goodbye</text>
<rect x="14943" y="-11" width="440" height="162" rx="10" fill="#6b6b35" fill-opacity="0.55" stroke="#6b6b35" stroke-width="3"/>
<text x="14953" y="15" fill="#e8e8e8" font-size="20">Salkurnudai ~1</text>
<rect x="14428" y="-63" width="385" height="122" rx="10" fill="#3d6b40" fill-opacity="0.55" stroke="#3d6b40" stroke-width="3"/>
<text x="14438" y="-37" fill="#e8e8e8" font-size="20">Disposition = 0</text>
<text x="14438" y="-11" fill="#b8b8b8" font-size="17">Class = Wise Woman</text>
<rect x="14943" y="181" width="440" height="74" rx="10" fill="#2f6b66" fill-opacity="0.55" stroke="#2f6b66" stroke-width="3"/>
<text x="14953" y="207" fill="#e8e8e8" font-size="20">ModDisposition -30</text>
<text x="14953" y="233" fill="#b8b8b8" font-size="17">Goodbye</text>
<rect x="7900" y="-94" width="128" height="50" rx="10" fill="#7a5a2f" fill-opacity="0.55" stroke="#7a5a2f" stroke-width="3"/>
<text x="7910" y="-68" fill="#e8e8e8" font-size="20">Jump #1</text>
<rect x="7900" y="385" width="128" height="50" rx="10" fill="#7a5a2f" fill-opacity="0.55" stroke="#7a5a2f" stroke-width="3"/>
<text x="7910" y="411" fill="#e8e8e8" font-size="20">Jump #2</text>
</svg>